<svg xmlns="http://www.w3.org/2000/svg" xmlns:xlink="http://www.w3.org/1999/xlink" xmlns:lucid="lucid" width="1221.5" height="1231"><g transform="translate(-979 120.5)" lucid:page-tab-id="0_0"><path d="M500-500h2000v2000H500z" fill="#fff"/><path d="M1760-110a10 10 0 0 1 10-10h260a10 10 0 0 1 10 10v230a10 10 0 0 1-10 10h-260a10 10 0 0 1-10-10z" fill="#fff"/><path d="M1760-110a10 10 0 0 1 10-10h260a10 10 0 0 1 10 10v30h-280z" fill="#ffdda6"/><path d="M1760-80h280v31h-280z" fill="#fff"/><path d="M1760-50h280v31h-280z" fill="#e6e6e6"/><path d="M1760-20h280v31h-280z" fill="#fff"/><path d="M1760 10h280v31h-280z" fill="#e6e6e6"/><path d="M1760 40h280v31h-280z" fill="#fff"/><path d="M1760 70h280v31h-280z" fill="#e6e6e6"/><path d="M1760 100h280v20a10 10 0 0 1-10 10h-260a10 10 0 0 1-10-10z" fill="#fff"/><path d="M1760.5-80h279-279zM1760-110a10 10 0 0 1 10-10h260a10 10 0 0 1 10 10v230a10 10 0 0 1-10 10h-260a10 10 0 0 1-10-10zM1900-79.5v209z" stroke="#282c33" fill="none"/><use xlink:href="#a" transform="matrix(1,0,0,1,1770,-120) translate(0 26.089501953125)"/><use xlink:href="#b" transform="matrix(1,0,0,1,1765,-77.5) translate(0 18.589501953125)"/><use xlink:href="#c" transform="matrix(1,0,0,1,1905,-77.5) translate(0 18.589501953125)"/><use xlink:href="#d" transform="matrix(1,0,0,1,1765,-47.5) translate(0 18.589501953125)"/><use xlink:href="#e" transform="matrix(1,0,0,1,1905,-47.5) translate(0 18.589501953125)"/><use xlink:href="#f" transform="matrix(1,0,0,1,1765,-17.5) translate(0 18.589501953125)"/><use xlink:href="#g" transform="matrix(1,0,0,1,1905,-17.5) translate(0 18.589501953125)"/><use xlink:href="#h" transform="matrix(1,0,0,1,1765,12.5) translate(0 18.589501953125)"/><use xlink:href="#e" transform="matrix(1,0,0,1,1905,12.5) translate(0 18.589501953125)"/><use xlink:href="#i" transform="matrix(1,0,0,1,1765,42.5) translate(0 18.589501953125)"/><use xlink:href="#j" transform="matrix(1,0,0,1,1905,42.5) translate(0 18.589501953125)"/><use xlink:href="#k" transform="matrix(1,0,0,1,1765,72.5) translate(0 18.589501953125)"/><use xlink:href="#l" transform="matrix(1,0,0,1,1905,72.5) translate(0 18.589501953125)"/><use xlink:href="#m" transform="matrix(1,0,0,1,1765,102.5) translate(0 18.589501953125)"/><use xlink:href="#l" transform="matrix(1,0,0,1,1905,102.5) translate(0 18.589501953125)"/><path d="M1040-110a10 10 0 0 1 10-10h260a10 10 0 0 1 10 10v260a10 10 0 0 1-10 10h-260a10 10 0 0 1-10-10z" fill="#fff"/><path d="M1040-110a10 10 0 0 1 10-10h260a10 10 0 0 1 10 10v30h-280z" fill="#fcfcca"/><path d="M1040-80h280v31h-280z" fill="#fff"/><path d="M1040-50h280v31h-280z" fill="#e6e6e6"/><path d="M1040-20h280v31h-280z" fill="#fff"/><path d="M1040 10h280v31h-280z" fill="#e6e6e6"/><path d="M1040 40h280v31h-280z" fill="#fff"/><path d="M1040 70h280v31h-280z" fill="#e6e6e6"/><path d="M1040 100h280v31h-280z" fill="#fff"/><path d="M1040 130h280v20a10 10 0 0 1-10 10h-260a10 10 0 0 1-10-10z" fill="#e6e6e6"/><path d="M1040.5-80h279-279zM1040-110a10 10 0 0 1 10-10h260a10 10 0 0 1 10 10v260a10 10 0 0 1-10 10h-260a10 10 0 0 1-10-10zM1180-79.5v239z" stroke="#282c33" fill="none"/><use xlink:href="#n" transform="matrix(1,0,0,1,1050,-120) translate(0 26.089501953125)"/><use xlink:href="#b" transform="matrix(1,0,0,1,1045,-77.5) translate(0 18.589501953125)"/><use xlink:href="#c" transform="matrix(1,0,0,1,1185,-77.5) translate(0 18.589501953125)"/><use xlink:href="#o" transform="matrix(1,0,0,1,1045,-47.5) translate(0 18.589501953125)"/><use xlink:href="#e" transform="matrix(1,0,0,1,1185,-47.5) translate(0 18.589501953125)"/><use xlink:href="#p" transform="matrix(1,0,0,1,1045,-17.5) translate(0 18.589501953125)"/><use xlink:href="#e" transform="matrix(1,0,0,1,1185,-17.5) translate(0 18.589501953125)"/><use xlink:href="#f" transform="matrix(1,0,0,1,1045,12.5) translate(0 18.589501953125)"/><use xlink:href="#g" transform="matrix(1,0,0,1,1185,12.5) translate(0 18.589501953125)"/><use xlink:href="#q" transform="matrix(1,0,0,1,1045,42.5) translate(0 18.589501953125)"/><use xlink:href="#e" transform="matrix(1,0,0,1,1185,42.5) translate(0 18.589501953125)"/><use xlink:href="#r" transform="matrix(1,0,0,1,1045,72.5) translate(0 18.589501953125)"/><use xlink:href="#e" transform="matrix(1,0,0,1,1185,72.5) translate(0 18.589501953125)"/><use xlink:href="#k" transform="matrix(1,0,0,1,1045,102.5) translate(0 18.589501953125)"/><use xlink:href="#l" transform="matrix(1,0,0,1,1185,102.5) translate(0 18.589501953125)"/><use xlink:href="#m" transform="matrix(1,0,0,1,1045,132.5) translate(0 18.589501953125)"/><use xlink:href="#l" transform="matrix(1,0,0,1,1185,132.5) translate(0 18.589501953125)"/><path d="M1020 390a10 10 0 0 1 10-10h260a10 10 0 0 1 10 10v410a10 10 0 0 1-10 10h-260a10 10 0 0 1-10-10z" fill="#fff"/><path d="M1020 390a10 10 0 0 1 10-10h260a10 10 0 0 1 10 10v30h-280z" fill="#c3f7c8"/><path d="M1020 420h280v31h-280z" fill="#fff"/><path d="M1020 450h280v31h-280z" fill="#e6e6e6"/><path d="M1020 480h280v31h-280z" fill="#fff"/><path d="M1020 510h280v31h-280z" fill="#e6e6e6"/><path d="M1020 540h280v31h-280z" fill="#fff"/><path d="M1020 570h280v31h-280z" fill="#e6e6e6"/><path d="M1020 600h280v31h-280z" fill="#fff"/><path d="M1020 630h280v31h-280z" fill="#e6e6e6"/><path d="M1020 660h280v31h-280z" fill="#fff"/><path d="M1020 690h280v31h-280z" fill="#e6e6e6"/><path d="M1020 720h280v31h-280z" fill="#fff"/><path d="M1020 750h280v31h-280z" fill="#e6e6e6"/><path d="M1020 780h280v20a10 10 0 0 1-10 10h-260a10 10 0 0 1-10-10z" fill="#fff"/><path d="M1020.5 420h279-279zM1020 390a10 10 0 0 1 10-10h260a10 10 0 0 1 10 10v410a10 10 0 0 1-10 10h-260a10 10 0 0 1-10-10zM1168.95 420.5v389z" stroke="#282c33" fill="none"/><use xlink:href="#s" transform="matrix(1,0,0,1,1030,380) translate(0 26.089501953125)"/><use xlink:href="#b" transform="matrix(1,0,0,1,1025,422.5) translate(0 18.589501953125)"/><use xlink:href="#c" transform="matrix(1,0,0,1,1173.9513644312237,422.5) translate(0 18.589501953125)"/><use xlink:href="#t" transform="matrix(1,0,0,1,1025,452.5) translate(0 18.589501953125)"/><use xlink:href="#c" transform="matrix(1,0,0,1,1173.9513644312237,452.5) translate(0 18.589501953125)"/><use xlink:href="#d" transform="matrix(1,0,0,1,1025,482.5) translate(0 18.589501953125)"/><use xlink:href="#e" transform="matrix(1,0,0,1,1173.9513644312237,482.5) translate(0 18.589501953125)"/><use xlink:href="#f" transform="matrix(1,0,0,1,1025,512.5) translate(0 18.589501953125)"/><use xlink:href="#g" transform="matrix(1,0,0,1,1173.9513644312237,512.5) translate(0 18.589501953125)"/><use xlink:href="#u" transform="matrix(1,0,0,1,1025,542.5) translate(0 18.589501953125)"/><use xlink:href="#e" transform="matrix(1,0,0,1,1173.9513644312237,542.5) translate(0 18.589501953125)"/><use xlink:href="#v" transform="matrix(1,0,0,1,1025,572.5) translate(0 18.589501953125)"/><use xlink:href="#e" transform="matrix(1,0,0,1,1173.9513644312237,572.5) translate(0 18.589501953125)"/><use xlink:href="#w" transform="matrix(1,0,0,1,1025,602.5) translate(0 18.589501953125)"/><use xlink:href="#e" transform="matrix(1,0,0,1,1173.9513644312237,602.5) translate(0 18.589501953125)"/><use xlink:href="#x" transform="matrix(1,0,0,1,1025,632.5) translate(0 18.589501953125)"/><use xlink:href="#e" transform="matrix(1,0,0,1,1173.9513644312237,632.5) translate(0 18.589501953125)"/><use xlink:href="#y" transform="matrix(1,0,0,1,1025,662.5) translate(0 18.589501953125)"/><use xlink:href="#e" transform="matrix(1,0,0,1,1173.9513644312237,662.5) translate(0 18.589501953125)"/><use xlink:href="#z" transform="matrix(1,0,0,1,1025,692.5) translate(0 18.589501953125)"/><use xlink:href="#A" transform="matrix(1,0,0,1,1173.9513644312237,692.5) translate(0 18.589501953125)"/><use xlink:href="#B" transform="matrix(1,0,0,1,1025,722.5) translate(0 18.589501953125)"/><use xlink:href="#e" transform="matrix(1,0,0,1,1173.9513644312237,722.5) translate(0 18.589501953125)"/><use xlink:href="#k" transform="matrix(1,0,0,1,1025,752.5) translate(0 18.589501953125)"/><use xlink:href="#l" transform="matrix(1,0,0,1,1173.9513644312237,752.5) translate(0 18.589501953125)"/><use xlink:href="#m" transform="matrix(1,0,0,1,1025,782.5) translate(0 18.589501953125)"/><use xlink:href="#l" transform="matrix(1,0,0,1,1173.9513644312237,782.5) translate(0 18.589501953125)"/><path d="M1460 510a10 10 0 0 1 10-10h300a10 10 0 0 1 10 10v590a10 10 0 0 1-10 10h-300a10 10 0 0 1-10-10z" fill="#fff"/><path d="M1460 510a10 10 0 0 1 10-10h300a10 10 0 0 1 10 10v30h-320z" fill="#cfe4ff"/><path d="M1460 540h320v31h-320z" fill="#fff"/><path d="M1460 570h320v31h-320z" fill="#e6e6e6"/><path d="M1460 600h320v31h-320z" fill="#fff"/><path d="M1460 630h320v31h-320z" fill="#e6e6e6"/><path d="M1460 660h320v31h-320z" fill="#fff"/><path d="M1460 690h320v31h-320z" fill="#e6e6e6"/><path d="M1460 720h320v31h-320z" fill="#fff"/><path d="M1460 750h320v31h-320z" fill="#e6e6e6"/><path d="M1460 780h320v31h-320z" fill="#fff"/><path d="M1460 810h320v31h-320z" fill="#e6e6e6"/><path d="M1460 840h320v31h-320z" fill="#fff"/><path d="M1460 870h320v31h-320z" fill="#e6e6e6"/><path d="M1460 900h320v31h-320z" fill="#fff"/><path d="M1460 930h320v31h-320z" fill="#e6e6e6"/><path d="M1460 960h320v31h-320z" fill="#fff"/><path d="M1460 990h320v31h-320z" fill="#e6e6e6"/><path d="M1460 1020h320v31h-320z" fill="#fff"/><path d="M1460 1050h320v31h-320z" fill="#e6e6e6"/><path d="M1460 1080h320v20a10 10 0 0 1-10 10h-300a10 10 0 0 1-10-10z" fill="#fff"/><path d="M1460.5 540h319-319zM1460 510a10 10 0 0 1 10-10h300a10 10 0 0 1 10 10v590a10 10 0 0 1-10 10h-300a10 10 0 0 1-10-10zM1675.68 540.5v569z" stroke="#282c33" fill="none"/><use xlink:href="#C" transform="matrix(1,0,0,1,1470,500) translate(0 26.089501953125)"/><use xlink:href="#b" transform="matrix(1,0,0,1,1465,542.5) translate(0 18.589501953125)"/><use xlink:href="#c" transform="matrix(1,0,0,1,1680.6774539777239,542.5) translate(0 18.589501953125)"/><use xlink:href="#t" transform="matrix(1,0,0,1,1465,572.5) translate(0 18.589501953125)"/><use xlink:href="#c" transform="matrix(1,0,0,1,1680.6774539777239,572.5) translate(0 18.589501953125)"/><use xlink:href="#D" transform="matrix(1,0,0,1,1465,602.5) translate(0 18.589501953125)"/><use xlink:href="#c" transform="matrix(1,0,0,1,1680.6774539777239,602.5) translate(0 18.589501953125)"/><use xlink:href="#E" transform="matrix(1,0,0,1,1465,632.5) translate(0 18.589501953125)"/><use xlink:href="#e" transform="matrix(1,0,0,1,1680.6774539777239,632.5) translate(0 18.589501953125)"/><use xlink:href="#F" transform="matrix(1,0,0,1,1465,662.5) translate(0 18.589501953125)"/><use xlink:href="#e" transform="matrix(1,0,0,1,1680.6774539777239,662.5) translate(0 18.589501953125)"/><use xlink:href="#G" transform="matrix(1,0,0,1,1465,692.5) translate(0 18.589501953125)"/><use xlink:href="#e" transform="matrix(1,0,0,1,1680.6774539777239,692.5) translate(0 18.589501953125)"/><use xlink:href="#H" transform="matrix(1,0,0,1,1465,722.5) translate(0 18.589501953125)"/><use xlink:href="#e" transform="matrix(1,0,0,1,1680.6774539777239,722.5) translate(0 18.589501953125)"/><use xlink:href="#I" transform="matrix(1,0,0,1,1465,752.5) translate(0 18.589501953125)"/><use xlink:href="#e" transform="matrix(1,0,0,1,1680.6774539777239,752.5) translate(0 18.589501953125)"/><use xlink:href="#d" transform="matrix(1,0,0,1,1465,782.5) translate(0 18.589501953125)"/><use xlink:href="#e" transform="matrix(1,0,0,1,1680.6774539777239,782.5) translate(0 18.589501953125)"/><use xlink:href="#J" transform="matrix(1,0,0,1,1465,812.5) translate(0 18.589501953125)"/><use xlink:href="#g" transform="matrix(1,0,0,1,1680.6774539777239,812.5) translate(0 18.589501953125)"/><use xlink:href="#K" transform="matrix(1,0,0,1,1465,842.5) translate(0 18.589501953125)"/><use xlink:href="#g" transform="matrix(1,0,0,1,1680.6774539777239,842.5) translate(0 18.589501953125)"/><use xlink:href="#L" transform="matrix(1,0,0,1,1465,872.5) translate(0 18.589501953125)"/><use xlink:href="#e" transform="matrix(1,0,0,1,1680.6774539777239,872.5) translate(0 18.589501953125)"/><use xlink:href="#M" transform="matrix(1,0,0,1,1465,902.5) translate(0 18.589501953125)"/><use xlink:href="#e" transform="matrix(1,0,0,1,1680.6774539777239,902.5) translate(0 18.589501953125)"/><use xlink:href="#N" transform="matrix(1,0,0,1,1465,932.5) translate(0 18.589501953125)"/><use xlink:href="#e" transform="matrix(1,0,0,1,1680.6774539777239,932.5) translate(0 18.589501953125)"/><use xlink:href="#O" transform="matrix(1,0,0,1,1465,962.5) translate(0 18.589501953125)"/><use xlink:href="#e" transform="matrix(1,0,0,1,1680.6774539777239,962.5) translate(0 18.589501953125)"/><use xlink:href="#P" transform="matrix(1,0,0,1,1465,992.5) translate(0 18.589501953125)"/><use xlink:href="#Q" transform="matrix(1,0,0,1,1680.6774539777239,992.5) translate(0 18.589501953125)"/><use xlink:href="#R" transform="matrix(1,0,0,1,1465,1022.5) translate(0 18.589501953125)"/><use xlink:href="#S" transform="matrix(1,0,0,1,1680.6774539777239,1022.5) translate(0 18.589501953125)"/><use xlink:href="#k" transform="matrix(1,0,0,1,1465,1052.5) translate(0 18.589501953125)"/><use xlink:href="#l" transform="matrix(1,0,0,1,1680.6774539777239,1052.5) translate(0 18.589501953125)"/><use xlink:href="#m" transform="matrix(1,0,0,1,1465,1082.5) translate(0 18.589501953125)"/><use xlink:href="#l" transform="matrix(1,0,0,1,1680.6774539777239,1082.5) translate(0 18.589501953125)"/><path d="M1880 310a10 10 0 0 1 10-10h300a10 10 0 0 1 10 10v410a10 10 0 0 1-10 10h-300a10 10 0 0 1-10-10z" fill="#fff"/><path d="M1880 310a10 10 0 0 1 10-10h300a10 10 0 0 1 10 10v30h-320z" fill="#fff0fb"/><path d="M1880 340h320v31h-320z" fill="#fff"/><path d="M1880 370h320v31h-320z" fill="#e6e6e6"/><path d="M1880 400h320v31h-320z" fill="#fff"/><path d="M1880 430h320v31h-320z" fill="#e6e6e6"/><path d="M1880 460h320v31h-320z" fill="#fff"/><path d="M1880 490h320v31h-320z" fill="#e6e6e6"/><path d="M1880 520h320v31h-320z" fill="#fff"/><path d="M1880 550h320v31h-320z" fill="#e6e6e6"/><path d="M1880 580h320v31h-320z" fill="#fff"/><path d="M1880 610h320v31h-320z" fill="#e6e6e6"/><path d="M1880 640h320v31h-320z" fill="#fff"/><path d="M1880 670h320v31h-320z" fill="#e6e6e6"/><path d="M1880 700h320v20a10 10 0 0 1-10 10h-300a10 10 0 0 1-10-10z" fill="#fff"/><path d="M1880.5 340h319-319zM1880 310a10 10 0 0 1 10-10h300a10 10 0 0 1 10 10v410a10 10 0 0 1-10 10h-300a10 10 0 0 1-10-10zM2066 340.5v389z" stroke="#282c33" fill="none"/><use xlink:href="#T" transform="matrix(1,0,0,1,1890,300) translate(0 26.089501953125)"/><use xlink:href="#b" transform="matrix(1,0,0,1,1885,342.5) translate(0 18.589501953125)"/><use xlink:href="#c" transform="matrix(1,0,0,1,2070.9890170549534,342.5) translate(0 18.589501953125)"/><use xlink:href="#U" transform="matrix(1,0,0,1,1885,372.5) translate(0 18.589501953125)"/><use xlink:href="#c" transform="matrix(1,0,0,1,2070.9890170549534,372.5) translate(0 18.589501953125)"/><use xlink:href="#t" transform="matrix(1,0,0,1,1885,402.5) translate(0 18.589501953125)"/><use xlink:href="#c" transform="matrix(1,0,0,1,2070.9890170549534,402.5) translate(0 18.589501953125)"/><use xlink:href="#G" transform="matrix(1,0,0,1,1885,432.5) translate(0 18.589501953125)"/><use xlink:href="#e" transform="matrix(1,0,0,1,2070.9890170549534,432.5) translate(0 18.589501953125)"/><use xlink:href="#H" transform="matrix(1,0,0,1,1885,462.5) translate(0 18.589501953125)"/><use xlink:href="#e" transform="matrix(1,0,0,1,2070.9890170549534,462.5) translate(0 18.589501953125)"/><use xlink:href="#I" transform="matrix(1,0,0,1,1885,492.5) translate(0 18.589501953125)"/><use xlink:href="#e" transform="matrix(1,0,0,1,2070.9890170549534,492.5) translate(0 18.589501953125)"/><use xlink:href="#V" transform="matrix(1,0,0,1,1885,522.5) translate(0 18.589501953125)"/><use xlink:href="#W" transform="matrix(1,0,0,1,2070.9890170549534,522.5) translate(0 18.589501953125)"/><use xlink:href="#X" transform="matrix(1,0,0,1,1885,552.5) translate(0 18.589501953125)"/><use xlink:href="#g" transform="matrix(1,0,0,1,2070.9890170549534,552.5) translate(0 18.589501953125)"/><use xlink:href="#Y" transform="matrix(1,0,0,1,1885,582.5) translate(0 18.589501953125)"/><use xlink:href="#Z" transform="matrix(1,0,0,1,2070.9890170549534,582.5) translate(0 18.589501953125)"/><use xlink:href="#aa" transform="matrix(1,0,0,1,1885,612.5) translate(0 18.589501953125)"/><use xlink:href="#e" transform="matrix(1,0,0,1,2070.9890170549534,612.5) translate(0 18.589501953125)"/><use xlink:href="#ab" transform="matrix(1,0,0,1,1885,642.5) translate(0 18.589501953125)"/><use xlink:href="#e" transform="matrix(1,0,0,1,2070.9890170549534,642.5) translate(0 18.589501953125)"/><use xlink:href="#ac" transform="matrix(1,0,0,1,1885,672.5) translate(0 18.589501953125)"/><use xlink:href="#c" transform="matrix(1,0,0,1,2070.9890170549534,672.5) translate(0 18.589501953125)"/><use xlink:href="#m" transform="matrix(1,0,0,1,1885,702.5) translate(0 18.589501953125)"/><use xlink:href="#l" transform="matrix(1,0,0,1,2070.9890170549534,702.5) translate(0 18.589501953125)"/><path d="M1340.5-65.3H1588a12 12 0 0 1 12 12v456a12 12 0 0 0 12 12h248.1M1320.5-65.3h20m0 10v-20M1879.28 414.7h-20m20-10l-20 10m20 10l-20-10M2060.5-65.25h8a12 12 0 0 1 12 12V203a12 12 0 0 1-12 12h-217a12 12 0 0 0-12 12v145.6a12 12 0 0 0 12 12h8.6M2040.5-65.25h20m0 10v-20M1879.28 384.6h-20m20-10l-20 10m20 10l-20-10M1800.5 554.22h17.5a12 12 0 0 1 12 12v17.03a12 12 0 0 0 12 12h18.1M1780.5 554.22h20m0 10v-20M1879.28 595.25h-20m20-10l-20 10m20 10l-20-10M1320.5 434.43h47.5a12 12 0 0 1 12 12V602.4a12 12 0 0 0 12 12h48.1M1300.5 434.43h20m0 10v-20M1459.28 614.4h-20m20-10l-20 10m20 10l-20-10" stroke="#3a414a" fill="none"/><path d="M1340.5-65.3h37.5a12 12 0 0 1 12 12v625.6a12 12 0 0 0 12 12h38.1M1320.5-65.3h20m0 10v-20M1459.28 584.3h-20m20-10l-20 10m20 10l-20-10" stroke="#3a414a" fill="none"/><path d="M1340.5-65.3h8a12 12 0 0 1 12 12V258a12 12 0 0 1-12 12h-357a12 12 0 0 0-12 12v170.54a12 12 0 0 0 12 12h8.6M1320.5-65.3h20m0 10v-20M1019.28 464.54h-20m20-10l-20 10m20 10l-20-10" stroke="#3a414a" fill="none"/><defs><path d="M49 0l509-1490h400L1480 0h-339l-115-346H497L386 0H49zm524-585h374c-75-213-124-402-192-666-66 268-110 453-182 666" id="ad"/><path d="M628 22C291 22 81-210 81-554c0-346 210-578 547-578 265 0 455 142 497 372l-279 52c-25-116-99-188-215-188-160 0-244 139-244 341 0 200 84 341 244 341 116 0 193-74 217-195l279 51C1085-123 896 22 628 22" id="ae"/><path d="M683-1118v229H474v562c0 71 29 104 102 104 23 0 73-7 95-13l43 225C647 9 580 16 520 16 296 16 174-96 174-301v-588H20v-229h154v-266h300v266h209" id="af"/><path d="M128 0v-1118h300V0H128zm150-1264c-91 0-165-68-165-154 0-85 74-154 165-154 90 0 165 69 165 154 0 86-75 154-165 154" id="ag"/><path d="M443 0L31-1118h319c90 293 199 572 268 885 66-313 175-593 264-885h315L784 0H443" id="ah"/><path d="M120 396l69-226c123 42 245 23 254-107l8-60L31-1118h319c87 288 199 559 259 872 72-308 185-583 277-872h315L726 132c-68 181-186 294-410 294-79 0-153-13-196-30" id="ai"/><g id="a"><use transform="matrix(0.008173828125000001,0,0,0.008173828125000001,0,0)" xlink:href="#ad"/><use transform="matrix(0.008173828125000001,0,0,0.008173828125000001,12.113613281250002,0)" xlink:href="#ae"/><use transform="matrix(0.008173828125000001,0,0,0.008173828125000001,21.963076171875002,0)" xlink:href="#af"/><use transform="matrix(0.008173828125000001,0,0,0.008173828125000001,28.093447265625002,0)" xlink:href="#ag"/><use transform="matrix(0.008173828125000001,0,0,0.008173828125000001,32.629921875,0)" xlink:href="#ah"/><use transform="matrix(0.008173828125000001,0,0,0.008173828125000001,42.66738281250001,0)" xlink:href="#ag"/><use transform="matrix(0.008173828125000001,0,0,0.008173828125000001,47.203857421875,0)" xlink:href="#af"/><use transform="matrix(0.008173828125000001,0,0,0.008173828125000001,53.70205078125,0)" xlink:href="#ai"/></g><path d="M158 0v-1118h180V0H158zm91-1301c-68 0-125-53-125-119s57-119 125-119c69 0 126 53 126 119s-57 119-126 119" id="aj"/><path d="M577 24c-279 0-473-224-473-580 0-354 195-576 474-576 218 0 287 134 324 193h14v-551h180V0H922v-173h-20C865-111 790 24 577 24zm27-161c203 0 314-172 314-421 0-247-108-413-314-413-212 0-317 181-317 413 0 235 108 421 317 421" id="ak"/><g id="b"><use transform="matrix(0.008173828125000001,0,0,0.008173828125000001,0,0)" xlink:href="#aj"/><use transform="matrix(0.008173828125000001,0,0,0.008173828125000001,4.05421875,0)" xlink:href="#ak"/></g><path d="M763 24c-353 0-583-224-583-531v-983h190v968c0 214 149 370 393 370 243 0 391-156 391-370v-968h190v983c0 307-230 531-581 531" id="al"/><path d="M370-1490V0H180v-1490h190" id="am"/><path d="M645 0H180v-1490h484c435 0 692 280 692 742 0 466-257 748-711 748zM370-168h263c363 0 539-218 539-580 0-358-176-574-521-574H370v1154" id="an"/><g id="c"><use transform="matrix(0.008173828125000001,0,0,0.008173828125000001,0,0)" xlink:href="#al"/><use transform="matrix(0.008173828125000001,0,0,0.008173828125000001,12.456914062500001,0)" xlink:href="#al"/><use transform="matrix(0.008173828125000001,0,0,0.008173828125000001,24.913828125000002,0)" xlink:href="#am"/><use transform="matrix(0.008173828125000001,0,0,0.008173828125000001,29.409433593750002,0)" xlink:href="#an"/></g><path d="M598-1118v154H368v674c0 100 37 144 132 144 23 0 62-6 92-12L629-6c-37 13-88 20-134 20-193 0-307-107-307-290v-688H20v-154h168v-266h180v266h230" id="ao"/><path d="M338-1490V0H158v-1490h180" id="ap"/><path d="M628 24c-324 0-524-230-524-574 0-343 198-582 503-582 237 0 487 146 487 559v75H286c9 234 145 362 343 362 132 0 231-58 273-172l174 48C1024-91 857 24 628 24zM287-650h624c-17-190-120-322-304-322-192 0-309 151-320 322" id="aq"/><g id="d"><use transform="matrix(0.008173828125000001,0,0,0.008173828125000001,0,0)" xlink:href="#ao"/><use transform="matrix(0.008173828125000001,0,0,0.008173828125000001,5.4764648437500005,0)" xlink:href="#aj"/><use transform="matrix(0.008173828125000001,0,0,0.008173828125000001,9.530683593750002,0)" xlink:href="#ao"/><use transform="matrix(0.008173828125000001,0,0,0.008173828125000001,15.007148437500003,0)" xlink:href="#ap"/><use transform="matrix(0.008173828125000001,0,0,0.008173828125000001,19.061367187500004,0)" xlink:href="#aq"/></g><path d="M657 26c-323 0-524-166-541-416h195c15 169 171 246 346 246 202 0 356-106 356-265 5-203-294-238-475-293-239-73-380-191-380-389 0-252 224-419 512-419 294 0 499 171 508 396H992c-17-145-151-228-328-228-193 0-321 102-321 242 0 156 175 211 284 241l149 41c160 44 422 134 422 412 0 244-197 432-541 432" id="ar"/><path d="M158 0v-1118h174v172h12c41-113 157-188 290-188 26 0 70 2 91 3v181c-11-2-60-10-108-10-161 0-279 109-279 260V0H158" id="as"/><path d="M338-670V0H158v-1118h173l1 207c72-158 192-221 342-221 226 0 378 139 378 422V0H872v-695c0-172-96-275-252-275-161 0-282 109-282 300" id="at"/><path d="M611 442c-248 0-391-105-460-228l146-94c47 65 117 165 314 165 178 0 307-82 307-266v-224h-17C863-141 792-18 576-18c-268 0-472-195-472-546 0-346 197-568 476-568 216 0 288 133 326 193h17v-179h175V29c0 289-215 413-487 413zm-5-620c203 0 314-146 314-390 0-237-108-403-314-403-213 0-319 180-319 403 0 230 109 390 319 390" id="au"/><g id="e"><use transform="matrix(0.008173828125000001,0,0,0.008173828125000001,0,0)" xlink:href="#ar"/><use transform="matrix(0.008173828125000001,0,0,0.008173828125000001,10.740410156250002,0)" xlink:href="#ao"/><use transform="matrix(0.008173828125000001,0,0,0.008173828125000001,16.216875,0)" xlink:href="#as"/><use transform="matrix(0.008173828125000001,0,0,0.008173828125000001,22.780458984375002,0)" xlink:href="#aj"/><use transform="matrix(0.008173828125000001,0,0,0.008173828125000001,26.834677734375003,0)" xlink:href="#at"/><use transform="matrix(0.008173828125000001,0,0,0.008173828125000001,36.725009765625,0)" xlink:href="#au"/></g><path d="M538 24C308 24 148-78 108-271l171-41c32 123 123 178 257 178 156 0 256-77 256-169 0-77-54-128-164-154l-186-44c-203-48-300-148-300-305 0-192 176-326 414-326 230 0 351 112 402 269l-163 42c-31-80-94-158-238-158-133 0-233 69-233 162 0 83 57 129 188 160l169 40c203 48 298 149 298 302 0 196-179 339-441 339" id="av"/><path d="M613 24c-304 0-509-231-509-576 0-350 205-580 509-580 216 0 392 114 453 309l-173 49c-33-115-133-197-280-197-223 0-326 196-326 419 0 220 103 415 326 415 150 0 252-85 285-206l172 49C1010-95 832 24 613 24" id="aw"/><path d="M158 418v-1536h174v179h20c37-59 106-193 324-193 279 0 474 222 474 576 0 356-194 580-473 580-213 0-288-135-325-197h-14v591H158zm492-555c209 0 317-186 317-421 0-232-105-413-317-413-206 0-314 166-314 413 0 249 111 421 314 421" id="ax"/><path d="M613 24c-304 0-509-231-509-576 0-350 205-580 509-580 305 0 511 230 511 580 0 345-206 576-511 576zm0-161c226 0 329-195 329-415 0-222-103-419-329-419-223 0-326 196-326 419 0 220 103 415 326 415" id="ay"/><g id="f"><use transform="matrix(0.008173828125000001,0,0,0.008173828125000001,0,0)" xlink:href="#ak"/><use transform="matrix(0.008173828125000001,0,0,0.008173828125000001,10.249980468750001,0)" xlink:href="#aq"/><use transform="matrix(0.008173828125000001,0,0,0.008173828125000001,20.009531250000002,0)" xlink:href="#av"/><use transform="matrix(0.008173828125000001,0,0,0.008173828125000001,28.845439453125003,0)" xlink:href="#aw"/><use transform="matrix(0.008173828125000001,0,0,0.008173828125000001,38.408818359375005,0)" xlink:href="#as"/><use transform="matrix(0.008173828125000001,0,0,0.008173828125000001,44.972402343750005,0)" xlink:href="#aj"/><use transform="matrix(0.008173828125000001,0,0,0.008173828125000001,49.02662109375001,0)" xlink:href="#ax"/><use transform="matrix(0.008173828125000001,0,0,0.008173828125000001,59.27660156250001,0)" xlink:href="#ao"/><use transform="matrix(0.008173828125000001,0,0,0.008173828125000001,64.75306640625001,0)" xlink:href="#aj"/><use transform="matrix(0.008173828125000001,0,0,0.008173828125000001,68.80728515625002,0)" xlink:href="#ay"/><use transform="matrix(0.008173828125000001,0,0,0.008173828125000001,78.84474609375002,0)" xlink:href="#at"/></g><path d="M98-1322v-168h1126v168H757V0H567v-1322H98" id="az"/><path d="M65 0l393-574-370-544h210c88 136 192 297 267 435 67-142 176-302 264-435h206L661-564 1053 0H844c-94-144-206-310-287-458C484-308 366-142 273 0H65" id="aA"/><g id="g"><use transform="matrix(0.008173828125000001,0,0,0.008173828125000001,0,0)" xlink:href="#az"/><use transform="matrix(0.008173828125000001,0,0,0.008173828125000001,9.49798828125,0)" xlink:href="#aq"/><use transform="matrix(0.008173828125000001,0,0,0.008173828125000001,18.88154296875,0)" xlink:href="#aA"/><use transform="matrix(0.008173828125000001,0,0,0.008173828125000001,28.346835937500003,0)" xlink:href="#ao"/></g><path d="M157-1118h181V80c1 225-123 350-364 338V252c126 9 184-48 183-172v-1198zm91-183c-68 0-125-53-125-119s57-119 125-119c69 0 126 53 126 119s-57 119-126 119" id="aB"/><g id="h"><use transform="matrix(0.008173828125000001,0,0,0.008173828125000001,0,0)" xlink:href="#ax"/><use transform="matrix(0.008173828125000001,0,0,0.008173828125000001,10.249980468750001,0)" xlink:href="#as"/><use transform="matrix(0.008173828125000001,0,0,0.008173828125000001,16.274091796875002,0)" xlink:href="#ay"/><use transform="matrix(0.008173828125000001,0,0,0.008173828125000001,26.311552734375002,0)" xlink:href="#aB"/><use transform="matrix(0.008173828125000001,0,0,0.008173828125000001,30.365771484375003,0)" xlink:href="#aq"/><use transform="matrix(0.008173828125000001,0,0,0.008173828125000001,40.125322265625,0)" xlink:href="#aw"/><use transform="matrix(0.008173828125000001,0,0,0.008173828125000001,49.688701171875,0)" xlink:href="#ao"/></g><path d="M471 26C259 26 90-98 90-318c0-256 228-303 435-329 202-27 287-16 287-108 0-139-79-219-234-219-161 0-248 86-283 164l-173-57c86-203 278-265 451-265 150 0 419 46 419 395V0H815v-152h-12C765-73 660 26 471 26zm31-159c199 0 310-134 310-271v-155c-30 35-226 55-295 64-131 17-246 59-246 186 0 116 97 176 231 176" id="aC"/><path d="M481 0L54-1118h197c107 314 236 620 325 951 87-331 217-637 324-951h197L670 0H481" id="aD"/><path d="M140 405l46-156c120 36 205 19 263-150l32-93L54-1118h197c107 313 237 620 324 950 87-331 219-637 326-950h196L606 167c-68 178-176 259-334 259-64 0-113-12-132-21" id="aE"/><path d="M934 0v166H0V0h934" id="aF"/><g id="i"><use transform="matrix(0.008173828125000001,0,0,0.008173828125000001,0,0)" xlink:href="#aC"/><use transform="matrix(0.008173828125000001,0,0,0.008173828125000001,9.399902343750002,0)" xlink:href="#aw"/><use transform="matrix(0.008173828125000001,0,0,0.008173828125000001,18.96328125,0)" xlink:href="#ao"/><use transform="matrix(0.008173828125000001,0,0,0.008173828125000001,24.439746093750003,0)" xlink:href="#aj"/><use transform="matrix(0.008173828125000001,0,0,0.008173828125000001,28.493964843750003,0)" xlink:href="#aD"/><use transform="matrix(0.008173828125000001,0,0,0.008173828125000001,37.902041015625,0)" xlink:href="#aj"/><use transform="matrix(0.008173828125000001,0,0,0.008173828125000001,41.956259765625006,0)" xlink:href="#ao"/><use transform="matrix(0.008173828125000001,0,0,0.008173828125000001,47.75967773437501,0)" xlink:href="#aE"/><use transform="matrix(0.008173828125000001,0,0,0.008173828125000001,55.84359375000001,0)" xlink:href="#aF"/><use transform="matrix(0.008173828125000001,0,0,0.008173828125000001,63.47794921875001,0)" xlink:href="#ak"/><use transform="matrix(0.008173828125000001,0,0,0.008173828125000001,73.72792968750001,0)" xlink:href="#aC"/><use transform="matrix(0.008173828125000001,0,0,0.008173828125000001,83.12783203125001,0)" xlink:href="#ao"/><use transform="matrix(0.008173828125000001,0,0,0.008173828125000001,88.44082031250001,0)" xlink:href="#aq"/></g><g id="j"><use transform="matrix(0.008173828125000001,0,0,0.008173828125000001,0,0)" xlink:href="#an"/><use transform="matrix(0.008173828125000001,0,0,0.008173828125000001,12.08091796875,0)" xlink:href="#aC"/><use transform="matrix(0.008173828125000001,0,0,0.008173828125000001,21.4808203125,0)" xlink:href="#ao"/><use transform="matrix(0.008173828125000001,0,0,0.008173828125000001,26.79380859375,0)" xlink:href="#aq"/></g><g id="k"><use transform="matrix(0.008173828125000001,0,0,0.008173828125000001,0,0)" xlink:href="#aw"/><use transform="matrix(0.008173828125000001,0,0,0.008173828125000001,9.563378906250001,0)" xlink:href="#as"/><use transform="matrix(0.008173828125000001,0,0,0.008173828125000001,15.587490234375002,0)" xlink:href="#aq"/><use transform="matrix(0.008173828125000001,0,0,0.008173828125000001,25.510517578125004,0)" xlink:href="#aC"/><use transform="matrix(0.008173828125000001,0,0,0.008173828125000001,34.910419921875004,0)" xlink:href="#ao"/><use transform="matrix(0.008173828125000001,0,0,0.008173828125000001,40.223408203125004,0)" xlink:href="#aq"/><use transform="matrix(0.008173828125000001,0,0,0.008173828125000001,49.982958984375,0)" xlink:href="#ak"/><use transform="matrix(0.008173828125000001,0,0,0.008173828125000001,60.232939453125006,0)" xlink:href="#aF"/><use transform="matrix(0.008173828125000001,0,0,0.008173828125000001,67.86729492187499,0)" xlink:href="#aC"/><use transform="matrix(0.008173828125000001,0,0,0.008173828125000001,77.267197265625,0)" xlink:href="#ao"/></g><path d="M158 0v-1118h175l1 205c55-151 181-225 313-225 147 0 245 90 285 228 53-141 190-228 352-228 194 0 352 125 352 384V0h-181v-749c0-161-105-225-225-225-151 0-243 103-243 244V0H807v-767c0-124-93-207-219-207-131 0-250 92-250 270V0H158" id="aG"/><g id="l"><use transform="matrix(0.008173828125000001,0,0,0.008173828125000001,0,0)" xlink:href="#an"/><use transform="matrix(0.008173828125000001,0,0,0.008173828125000001,12.08091796875,0)" xlink:href="#aC"/><use transform="matrix(0.008173828125000001,0,0,0.008173828125000001,21.4808203125,0)" xlink:href="#ao"/><use transform="matrix(0.008173828125000001,0,0,0.008173828125000001,26.79380859375,0)" xlink:href="#aq"/><use transform="matrix(0.008173828125000001,0,0,0.008173828125000001,35.245546875,0)" xlink:href="#az"/><use transform="matrix(0.008173828125000001,0,0,0.008173828125000001,46.051347656249995,0)" xlink:href="#aj"/><use transform="matrix(0.008173828125000001,0,0,0.008173828125000001,50.105566406250006,0)" xlink:href="#aG"/><use transform="matrix(0.008173828125000001,0,0,0.008173828125000001,64.7694140625,0)" xlink:href="#aq"/></g><path d="M537 14c-226 0-379-139-379-422v-710h180v695c0 172 97 275 253 275 160 0 281-109 281-300v-670h181V0H879v-209C806-46 684 14 537 14" id="aH"/><g id="m"><use transform="matrix(0.008173828125000001,0,0,0.008173828125000001,0,0)" xlink:href="#aH"/><use transform="matrix(0.008173828125000001,0,0,0.008173828125000001,9.898505859375001,0)" xlink:href="#ax"/><use transform="matrix(0.008173828125000001,0,0,0.008173828125000001,20.148486328125003,0)" xlink:href="#ak"/><use transform="matrix(0.008173828125000001,0,0,0.008173828125000001,30.398466796875006,0)" xlink:href="#aC"/><use transform="matrix(0.008173828125000001,0,0,0.008173828125000001,39.798369140625006,0)" xlink:href="#ao"/><use transform="matrix(0.008173828125000001,0,0,0.008173828125000001,45.111357421875006,0)" xlink:href="#aq"/><use transform="matrix(0.008173828125000001,0,0,0.008173828125000001,54.870908203125005,0)" xlink:href="#ak"/><use transform="matrix(0.008173828125000001,0,0,0.008173828125000001,65.12088867187501,0)" xlink:href="#aF"/><use transform="matrix(0.008173828125000001,0,0,0.008173828125000001,72.75524414062501,0)" xlink:href="#aC"/><use transform="matrix(0.008173828125000001,0,0,0.008173828125000001,82.15514648437501,0)" xlink:href="#ao"/></g><path d="M135 0v-1490h980v253H440v416h609v249H440V0H135" id="aI"/><path d="M128 0v-1118h290v195h12c54-169 184-238 367-200v268c-27-8-86-15-130-15-138 0-239 95-239 234V0H128" id="aJ"/><path d="M440 22C227 22 68-92 68-313c0-250 202-322 422-343 195-21 271-24 271-105 0-95-63-149-175-149-116 0-187 57-211 129l-275-46c57-194 237-305 487-305 240 0 474 108 474 379V0H777v-155h-10C713-51 605 22 440 22zm85-211c140 0 238-93 238-211v-121c-37 26-156 42-222 51-111 16-185 59-185 149 0 87 70 132 169 132" id="aK"/><path d="M128 0v-1118h278l12 217c60-163 185-234 319-234 143 0 236 81 288 251 63-172 205-251 359-251 205 0 357 138 357 381V0h-301v-697c0-126-76-187-177-187-114 0-184 79-184 196V0H789v-705c0-109-72-179-174-179-106 0-187 74-187 208V0H128" id="aL"/><path d="M633 22C291 22 81-200 81-553c0-345 210-579 537-579 292 0 525 185 525 567v84H378c7 183 109 277 260 277 105 0 184-46 216-132l272 51C1071-99 893 22 633 22zM380-669h474c-15-146-94-237-233-237-143 0-229 99-241 237" id="aM"/><path d="M361 0L31-1118h315c68 295 127 523 188 845 63-317 128-551 199-845h276c71 296 131 525 196 846 57-321 119-552 186-846h319L1378 0h-305c-73-261-148-486-204-771C813-484 740-261 666 0H361" id="aN"/><path d="M628 22C291 22 81-210 81-554c0-346 210-578 547-578 336 0 547 232 547 578 0 344-211 576-547 576zm0-236c160 0 242-146 242-341 0-197-82-341-242-341S387-753 387-555c0 195 81 341 241 341" id="aO"/><path d="M128 0v-1490h300v802h17l366-430h347L740-633 1179 0H826L514-456l-86 97V0H128" id="aP"/><g id="n"><use transform="matrix(0.008173828125000001,0,0,0.008173828125000001,0,0)" xlink:href="#aI"/><use transform="matrix(0.008173828125000001,0,0,0.008173828125000001,9.497988281250002,0)" xlink:href="#aJ"/><use transform="matrix(0.008173828125000001,0,0,0.008173828125000001,16.086093750000003,0)" xlink:href="#aK"/><use transform="matrix(0.008173828125000001,0,0,0.008173828125000001,25.804775390625004,0)" xlink:href="#aL"/><use transform="matrix(0.008173828125000001,0,0,0.008173828125000001,41.08166015625001,0)" xlink:href="#aM"/><use transform="matrix(0.008173828125000001,0,0,0.008173828125000001,50.82486328125001,0)" xlink:href="#aN"/><use transform="matrix(0.008173828125000001,0,0,0.008173828125000001,64.82663085937502,0)" xlink:href="#aO"/><use transform="matrix(0.008173828125000001,0,0,0.008173828125000001,75.09295898437503,0)" xlink:href="#aJ"/><use transform="matrix(0.008173828125000001,0,0,0.008173828125000001,82.17149414062501,0)" xlink:href="#aP"/></g><g id="o"><use transform="matrix(0.008173828125000001,0,0,0.008173828125000001,0,0)" xlink:href="#at"/><use transform="matrix(0.008173828125000001,0,0,0.008173828125000001,9.89033203125,0)" xlink:href="#aC"/><use transform="matrix(0.008173828125000001,0,0,0.008173828125000001,19.290234375000004,0)" xlink:href="#aG"/><use transform="matrix(0.008173828125000001,0,0,0.008173828125000001,33.95408203125001,0)" xlink:href="#aq"/></g><g id="p"><use transform="matrix(0.008173828125000001,0,0,0.008173828125000001,0,0)" xlink:href="#aD"/><use transform="matrix(0.008173828125000001,0,0,0.008173828125000001,9.081123046875001,0)" xlink:href="#aq"/><use transform="matrix(0.008173828125000001,0,0,0.008173828125000001,18.840673828125002,0)" xlink:href="#as"/><use transform="matrix(0.008173828125000001,0,0,0.008173828125000001,25.142695312500003,0)" xlink:href="#av"/><use transform="matrix(0.008173828125000001,0,0,0.008173828125000001,33.978603515625004,0)" xlink:href="#aj"/><use transform="matrix(0.008173828125000001,0,0,0.008173828125000001,38.032822265625,0)" xlink:href="#ay"/><use transform="matrix(0.008173828125000001,0,0,0.008173828125000001,48.070283203125,0)" xlink:href="#at"/></g><g id="q"><use transform="matrix(0.008173828125000001,0,0,0.008173828125000001,0,0)" xlink:href="#ap"/><use transform="matrix(0.008173828125000001,0,0,0.008173828125000001,4.05421875,0)" xlink:href="#aj"/><use transform="matrix(0.008173828125000001,0,0,0.008173828125000001,8.1084375,0)" xlink:href="#aw"/><use transform="matrix(0.008173828125000001,0,0,0.008173828125000001,17.671816406250002,0)" xlink:href="#aq"/><use transform="matrix(0.008173828125000001,0,0,0.008173828125000001,27.4313671875,0)" xlink:href="#at"/><use transform="matrix(0.008173828125000001,0,0,0.008173828125000001,37.32169921875,0)" xlink:href="#av"/><use transform="matrix(0.008173828125000001,0,0,0.008173828125000001,46.157607421875,0)" xlink:href="#aq"/></g><path d="M338-670V0H158v-1490h180v566c73-149 190-208 336-208 226 0 379 139 379 422V0H872v-695c0-172-96-275-252-275-161 0-282 109-282 300" id="aQ"/><g id="r"><use transform="matrix(0.008173828125000001,0,0,0.008173828125000001,0,0)" xlink:href="#aQ"/><use transform="matrix(0.008173828125000001,0,0,0.008173828125000001,9.898505859375001,0)" xlink:href="#ay"/><use transform="matrix(0.008173828125000001,0,0,0.008173828125000001,19.935966796875,0)" xlink:href="#aG"/><use transform="matrix(0.008173828125000001,0,0,0.008173828125000001,34.599814453125006,0)" xlink:href="#aq"/><use transform="matrix(0.008173828125000001,0,0,0.008173828125000001,44.359365234375005,0)" xlink:href="#ax"/><use transform="matrix(0.008173828125000001,0,0,0.008173828125000001,54.77282226562501,0)" xlink:href="#aC"/><use transform="matrix(0.008173828125000001,0,0,0.008173828125000001,64.17272460937501,0)" xlink:href="#au"/><use transform="matrix(0.008173828125000001,0,0,0.008173828125000001,74.43905273437501,0)" xlink:href="#aq"/><use transform="matrix(0.008173828125000001,0,0,0.008173828125000001,84.19860351562501,0)" xlink:href="#aF"/><use transform="matrix(0.008173828125000001,0,0,0.008173828125000001,91.83295898437501,0)" xlink:href="#aH"/><use transform="matrix(0.008173828125000001,0,0,0.008173828125000001,101.73146484375002,0)" xlink:href="#as"/><use transform="matrix(0.008173828125000001,0,0,0.008173828125000001,108.29504882812502,0)" xlink:href="#ap"/></g><path d="M659 0H135v-1490h529c448 0 721 280 721 744 0 466-273 746-726 746zM440-263h204c287 0 437-148 437-483 0-333-150-481-435-481H440v964" id="aR"/><path d="M513 14c-232 0-385-159-385-421v-711h300v659c0 139 76 222 202 222 127 0 217-86 217-234v-647h301V0H864l-4-232C797-74 683 14 513 14" id="aS"/><path d="M428-647V0H128v-1118h283l4 231c63-156 176-245 348-245 232 0 384 159 384 421V0H847v-659c0-139-76-222-202-222-128 0-217 86-217 234" id="aT"/><g id="s"><use transform="matrix(0.008173828125000001,0,0,0.008173828125000001,0,0)" xlink:href="#aI"/><use transform="matrix(0.008173828125000001,0,0,0.008173828125000001,9.497988281250002,0)" xlink:href="#aJ"/><use transform="matrix(0.008173828125000001,0,0,0.008173828125000001,16.086093750000003,0)" xlink:href="#aK"/><use transform="matrix(0.008173828125000001,0,0,0.008173828125000001,25.804775390625004,0)" xlink:href="#aL"/><use transform="matrix(0.008173828125000001,0,0,0.008173828125000001,41.08166015625001,0)" xlink:href="#aM"/><use transform="matrix(0.008173828125000001,0,0,0.008173828125000001,50.82486328125001,0)" xlink:href="#aN"/><use transform="matrix(0.008173828125000001,0,0,0.008173828125000001,64.82663085937502,0)" xlink:href="#aO"/><use transform="matrix(0.008173828125000001,0,0,0.008173828125000001,75.09295898437503,0)" xlink:href="#aJ"/><use transform="matrix(0.008173828125000001,0,0,0.008173828125000001,82.17149414062501,0)" xlink:href="#aP"/><use transform="matrix(0.008173828125000001,0,0,0.008173828125000001,91.88200195312501,0)" xlink:href="#aR"/><use transform="matrix(0.008173828125000001,0,0,0.008173828125000001,103.97109375000001,0)" xlink:href="#aO"/><use transform="matrix(0.008173828125000001,0,0,0.008173828125000001,114.23742187500001,0)" xlink:href="#ae"/><use transform="matrix(0.008173828125000001,0,0,0.008173828125000001,124.08688476562502,0)" xlink:href="#aS"/><use transform="matrix(0.008173828125000001,0,0,0.008173828125000001,134.50851562500003,0)" xlink:href="#aL"/><use transform="matrix(0.008173828125000001,0,0,0.008173828125000001,149.78540039062503,0)" xlink:href="#aM"/><use transform="matrix(0.008173828125000001,0,0,0.008173828125000001,159.75747070312502,0)" xlink:href="#aT"/><use transform="matrix(0.008173828125000001,0,0,0.008173828125000001,170.17910156250002,0)" xlink:href="#af"/></g><path d="M678-1118v154H420V0H240v-964H20v-154h220v-149c0-194 155-293 318-293 85 0 141 18 168 30l-50 154c-19-6-47-17-97-17-111 0-159 58-159 166v109h258" id="aU"/><path d="M409 0L70-1118h191c89 329 165 560 243 925 75-353 154-601 240-925h192c85 325 161 564 235 922 77-354 157-598 244-922h191L1267 0h-179c-86-307-176-590-250-913C763-588 675-308 588 0H409" id="aV"/><path d="M158 0v-1490h180v865h22l478-493h223L593-638 1096 0H865L456-523 338-412V0H158" id="aW"/><g id="t"><use transform="matrix(0.008173828125000001,0,0,0.008173828125000001,0,0)" xlink:href="#aU"/><use transform="matrix(0.008173828125000001,0,0,0.008173828125000001,6.195761718750001,0)" xlink:href="#as"/><use transform="matrix(0.008173828125000001,0,0,0.008173828125000001,12.497783203125001,0)" xlink:href="#aC"/><use transform="matrix(0.008173828125000001,0,0,0.008173828125000001,21.897685546875003,0)" xlink:href="#aG"/><use transform="matrix(0.008173828125000001,0,0,0.008173828125000001,36.56153320312501,0)" xlink:href="#aq"/><use transform="matrix(0.008173828125000001,0,0,0.008173828125000001,46.018652343750006,0)" xlink:href="#aV"/><use transform="matrix(0.008173828125000001,0,0,0.008173828125000001,59.415556640625006,0)" xlink:href="#ay"/><use transform="matrix(0.008173828125000001,0,0,0.008173828125000001,69.45301757812501,0)" xlink:href="#as"/><use transform="matrix(0.008173828125000001,0,0,0.008173828125000001,76.01660156250001,0)" xlink:href="#aW"/><use transform="matrix(0.008173828125000001,0,0,0.008173828125000001,85.20398437500002,0)" xlink:href="#aF"/><use transform="matrix(0.008173828125000001,0,0,0.008173828125000001,93.40233398437502,0)" xlink:href="#aj"/><use transform="matrix(0.008173828125000001,0,0,0.008173828125000001,97.45655273437502,0)" xlink:href="#ak"/></g><g id="u"><use transform="matrix(0.008173828125000001,0,0,0.008173828125000001,0,0)" xlink:href="#ak"/><use transform="matrix(0.008173828125000001,0,0,0.008173828125000001,10.249980468750001,0)" xlink:href="#ay"/><use transform="matrix(0.008173828125000001,0,0,0.008173828125000001,20.287441406250004,0)" xlink:href="#aw"/><use transform="matrix(0.008173828125000001,0,0,0.008173828125000001,29.850820312500005,0)" xlink:href="#aF"/><use transform="matrix(0.008173828125000001,0,0,0.008173828125000001,37.48517578125001,0)" xlink:href="#ao"/><use transform="matrix(0.008173828125000001,0,0,0.008173828125000001,43.28859375000001,0)" xlink:href="#aE"/><use transform="matrix(0.008173828125000001,0,0,0.008173828125000001,52.696669921875014,0)" xlink:href="#ax"/><use transform="matrix(0.008173828125000001,0,0,0.008173828125000001,62.94665039062502,0)" xlink:href="#aq"/></g><g id="v"><use transform="matrix(0.008173828125000001,0,0,0.008173828125000001,0,0)" xlink:href="#aw"/><use transform="matrix(0.008173828125000001,0,0,0.008173828125000001,9.563378906250001,0)" xlink:href="#ay"/><use transform="matrix(0.008173828125000001,0,0,0.008173828125000001,19.600839843750002,0)" xlink:href="#at"/><use transform="matrix(0.008173828125000001,0,0,0.008173828125000001,29.491171875000003,0)" xlink:href="#ao"/><use transform="matrix(0.008173828125000001,0,0,0.008173828125000001,34.80416015625,0)" xlink:href="#aq"/><use transform="matrix(0.008173828125000001,0,0,0.008173828125000001,44.5637109375,0)" xlink:href="#at"/><use transform="matrix(0.008173828125000001,0,0,0.008173828125000001,54.45404296875,0)" xlink:href="#ao"/><use transform="matrix(0.008173828125000001,0,0,0.008173828125000001,59.930507812500004,0)" xlink:href="#aF"/><use transform="matrix(0.008173828125000001,0,0,0.008173828125000001,67.56486328125,0)" xlink:href="#ao"/><use transform="matrix(0.008173828125000001,0,0,0.008173828125000001,73.36828125,0)" xlink:href="#aE"/><use transform="matrix(0.008173828125000001,0,0,0.008173828125000001,82.77635742187499,0)" xlink:href="#ax"/><use transform="matrix(0.008173828125000001,0,0,0.008173828125000001,93.02633789062499,0)" xlink:href="#aq"/></g><path d="M677 24c-213 0-288-135-325-197h-20V0H158v-1490h180v551h14c37-59 106-193 324-193 279 0 474 222 474 576 0 356-194 580-473 580zm-27-161c209 0 317-186 317-421 0-232-105-413-317-413-206 0-314 166-314 413 0 249 111 421 314 421" id="aX"/><g id="w"><use transform="matrix(0.008173828125000001,0,0,0.008173828125000001,0,0)" xlink:href="#av"/><use transform="matrix(0.008173828125000001,0,0,0.008173828125000001,8.835908203125001,0)" xlink:href="#ao"/><use transform="matrix(0.008173828125000001,0,0,0.008173828125000001,14.148896484375001,0)" xlink:href="#ay"/><use transform="matrix(0.008173828125000001,0,0,0.008173828125000001,24.186357421875,0)" xlink:href="#as"/><use transform="matrix(0.008173828125000001,0,0,0.008173828125000001,30.488378906250002,0)" xlink:href="#aC"/><use transform="matrix(0.008173828125000001,0,0,0.008173828125000001,39.888281250000006,0)" xlink:href="#au"/><use transform="matrix(0.008173828125000001,0,0,0.008173828125000001,50.15460937500001,0)" xlink:href="#aq"/><use transform="matrix(0.008173828125000001,0,0,0.008173828125000001,59.914160156250006,0)" xlink:href="#aF"/><use transform="matrix(0.008173828125000001,0,0,0.008173828125000001,68.112509765625,0)" xlink:href="#aX"/><use transform="matrix(0.008173828125000001,0,0,0.008173828125000001,78.525966796875,0)" xlink:href="#aC"/><use transform="matrix(0.008173828125000001,0,0,0.008173828125000001,87.925869140625,0)" xlink:href="#aw"/><use transform="matrix(0.008173828125000001,0,0,0.008173828125000001,97.48924804687499,0)" xlink:href="#aW"/><use transform="matrix(0.008173828125000001,0,0,0.008173828125000001,106.30063476562499,0)" xlink:href="#aq"/><use transform="matrix(0.008173828125000001,0,0,0.008173828125000001,116.06018554687499,0)" xlink:href="#at"/><use transform="matrix(0.008173828125000001,0,0,0.008173828125000001,125.95051757812499,0)" xlink:href="#ak"/></g><g id="x"><use transform="matrix(0.008173828125000001,0,0,0.008173828125000001,0,0)" xlink:href="#aX"/><use transform="matrix(0.008173828125000001,0,0,0.008173828125000001,10.249980468750001,0)" xlink:href="#aH"/><use transform="matrix(0.008173828125000001,0,0,0.008173828125000001,20.148486328125003,0)" xlink:href="#aw"/><use transform="matrix(0.008173828125000001,0,0,0.008173828125000001,29.711865234375004,0)" xlink:href="#aW"/><use transform="matrix(0.008173828125000001,0,0,0.008173828125000001,38.523251953125005,0)" xlink:href="#aq"/><use transform="matrix(0.008173828125000001,0,0,0.008173828125000001,48.282802734375004,0)" xlink:href="#ao"/></g><g id="y"><use transform="matrix(0.008173828125000001,0,0,0.008173828125000001,0,0)" xlink:href="#ay"/><use transform="matrix(0.008173828125000001,0,0,0.008173828125000001,10.0374609375,0)" xlink:href="#aX"/><use transform="matrix(0.008173828125000001,0,0,0.008173828125000001,20.287441406250004,0)" xlink:href="#aB"/><use transform="matrix(0.008173828125000001,0,0,0.008173828125000001,24.341660156250004,0)" xlink:href="#aq"/><use transform="matrix(0.008173828125000001,0,0,0.008173828125000001,34.10121093750001,0)" xlink:href="#aw"/><use transform="matrix(0.008173828125000001,0,0,0.008173828125000001,43.66458984375001,0)" xlink:href="#ao"/><use transform="matrix(0.008173828125000001,0,0,0.008173828125000001,49.14105468750001,0)" xlink:href="#aF"/><use transform="matrix(0.008173828125000001,0,0,0.008173828125000001,57.33940429687501,0)" xlink:href="#aW"/><use transform="matrix(0.008173828125000001,0,0,0.008173828125000001,66.15079101562502,0)" xlink:href="#aq"/><use transform="matrix(0.008173828125000001,0,0,0.008173828125000001,75.58338867187501,0)" xlink:href="#aE"/></g><path d="M126 0v-134l627-806v-11H146v-167h839v143L376-178v11h629V0H126" id="aY"/><g id="z"><use transform="matrix(0.008173828125000001,0,0,0.008173828125000001,0,0)" xlink:href="#av"/><use transform="matrix(0.008173828125000001,0,0,0.008173828125000001,8.835908203125001,0)" xlink:href="#aj"/><use transform="matrix(0.008173828125000001,0,0,0.008173828125000001,12.890126953125002,0)" xlink:href="#aY"/><use transform="matrix(0.008173828125000001,0,0,0.008173828125000001,21.88951171875,0)" xlink:href="#aq"/><use transform="matrix(0.008173828125000001,0,0,0.008173828125000001,31.6490625,0)" xlink:href="#aF"/><use transform="matrix(0.008173828125000001,0,0,0.008173828125000001,39.847412109375,0)" xlink:href="#aX"/><use transform="matrix(0.008173828125000001,0,0,0.008173828125000001,49.770439453125,0)" xlink:href="#aE"/><use transform="matrix(0.008173828125000001,0,0,0.008173828125000001,59.42373046875,0)" xlink:href="#ao"/><use transform="matrix(0.008173828125000001,0,0,0.008173828125000001,64.73671875,0)" xlink:href="#aq"/><use transform="matrix(0.008173828125000001,0,0,0.008173828125000001,74.49626953125,0)" xlink:href="#av"/></g><path d="M180 0v-1490h528c311 0 458 177 458 395 0 191-114 278-244 313v14c139 9 302 137 302 371 0 225-148 397-499 397H180zm190-168h350c232 0 321-102 321-231 0-149-120-277-311-277H370v508zm0-668h328c160 0 286-101 286-255 0-129-87-231-280-231H370v486" id="aZ"/><g id="A"><use transform="matrix(0.008173828125000001,0,0,0.008173828125000001,0,0)" xlink:href="#aZ"/><use transform="matrix(0.008173828125000001,0,0,0.008173828125000001,10.952929687500001,0)" xlink:href="#aj"/><use transform="matrix(0.008173828125000001,0,0,0.008173828125000001,15.007148437500001,0)" xlink:href="#au"/><use transform="matrix(0.008173828125000001,0,0,0.008173828125000001,25.2734765625,0)" xlink:href="#am"/><use transform="matrix(0.008173828125000001,0,0,0.008173828125000001,29.76908203125,0)" xlink:href="#at"/><use transform="matrix(0.008173828125000001,0,0,0.008173828125000001,39.659414062500005,0)" xlink:href="#ao"/><use transform="matrix(0.008173828125000001,0,0,0.008173828125000001,44.972402343750005,0)" xlink:href="#aq"/><use transform="matrix(0.008173828125000001,0,0,0.008173828125000001,54.731953125000004,0)" xlink:href="#au"/><use transform="matrix(0.008173828125000001,0,0,0.008173828125000001,64.99828125,0)" xlink:href="#aq"/><use transform="matrix(0.008173828125000001,0,0,0.008173828125000001,74.75783203125,0)" xlink:href="#as"/></g><g id="B"><use transform="matrix(0.008173828125000001,0,0,0.008173828125000001,0,0)" xlink:href="#aw"/><use transform="matrix(0.008173828125000001,0,0,0.008173828125000001,9.563378906250001,0)" xlink:href="#aQ"/><use transform="matrix(0.008173828125000001,0,0,0.008173828125000001,19.461884765625,0)" xlink:href="#aq"/><use transform="matrix(0.008173828125000001,0,0,0.008173828125000001,29.221435546875,0)" xlink:href="#aw"/><use transform="matrix(0.008173828125000001,0,0,0.008173828125000001,38.784814453125,0)" xlink:href="#aW"/><use transform="matrix(0.008173828125000001,0,0,0.008173828125000001,47.972197265625,0)" xlink:href="#av"/><use transform="matrix(0.008173828125000001,0,0,0.008173828125000001,56.80810546875,0)" xlink:href="#aH"/><use transform="matrix(0.008173828125000001,0,0,0.008173828125000001,66.706611328125,0)" xlink:href="#aG"/></g><path d="M135 0v-1490h305c1 251 0 501-5 746 157-254 405-512 598-746h373L849-845 1422 0h-361L638-644 440-426V0H135" id="ba"/><path d="M428-1490V0H128v-1490h300" id="bb"/><path d="M537 19C279 19 81-185 81-557c0-382 206-575 454-575 190 0 278 113 318 202h10v-560h300V0H868v-179h-15C812-89 719 19 537 19zm92-241c153 0 240-134 240-336 0-203-86-334-240-334-158 0-240 138-240 334 0 197 84 336 240 336" id="bc"/><path d="M625 442c-280 0-454-114-503-274l258-72c28 63 97 128 243 128 153 0 246-69 246-216v-206h-23C805-108 717-16 536-16 284-16 81-191 81-561c0-378 208-571 456-571 188 0 280 113 321 202h13v-188h295V-9c0 303-226 451-541 451zm5-686c153 0 240-119 240-319 0-198-86-329-240-329-158 0-241 137-241 329 0 195 85 319 241 319" id="bd"/><path d="M786 20C389 20 94-260 94-744c0-487 299-766 692-766 339 0 597 194 641 529h-309c-28-162-156-258-326-258-233 0-388 179-388 495 0 323 157 493 387 493 170 0 298-97 328-259h309c-34 277-266 530-642 530" id="be"/><path d="M428-647V0H128v-1490h294v586c65-146 175-228 341-228 232 0 385 159 385 421V0H847v-659c0-139-76-222-202-222-128 0-217 86-217 234" id="bf"/><g id="C"><use transform="matrix(0.008173828125000001,0,0,0.008173828125000001,0,0)" xlink:href="#ba"/><use transform="matrix(0.008173828125000001,0,0,0.008173828125000001,12.040048828125002,0)" xlink:href="#aT"/><use transform="matrix(0.008173828125000001,0,0,0.008173828125000001,22.461679687500002,0)" xlink:href="#aO"/><use transform="matrix(0.008173828125000001,0,0,0.008173828125000001,32.499140625,0)" xlink:href="#aN"/><use transform="matrix(0.008173828125000001,0,0,0.008173828125000001,46.72977539062501,0)" xlink:href="#bb"/><use transform="matrix(0.008173828125000001,0,0,0.008173828125000001,51.26625000000001,0)" xlink:href="#aM"/><use transform="matrix(0.008173828125000001,0,0,0.008173828125000001,61.23832031250001,0)" xlink:href="#bc"/><use transform="matrix(0.008173828125000001,0,0,0.008173828125000001,71.790732421875,0)" xlink:href="#bd"/><use transform="matrix(0.008173828125000001,0,0,0.008173828125000001,82.367666015625,0)" xlink:href="#aM"/><use transform="matrix(0.008173828125000001,0,0,0.008173828125000001,92.33973632812501,0)" xlink:href="#be"/><use transform="matrix(0.008173828125000001,0,0,0.008173828125000001,104.72308593750002,0)" xlink:href="#bf"/><use transform="matrix(0.008173828125000001,0,0,0.008173828125000001,115.14471679687502,0)" xlink:href="#aS"/><use transform="matrix(0.008173828125000001,0,0,0.008173828125000001,125.56634765625002,0)" xlink:href="#aT"/><use transform="matrix(0.008173828125000001,0,0,0.008173828125000001,135.987978515625,0)" xlink:href="#aP"/></g><g id="D"><use transform="matrix(0.008173828125000001,0,0,0.008173828125000001,0,0)" xlink:href="#aU"/><use transform="matrix(0.008173828125000001,0,0,0.008173828125000001,6.195761718750001,0)" xlink:href="#as"/><use transform="matrix(0.008173828125000001,0,0,0.008173828125000001,12.497783203125001,0)" xlink:href="#aC"/><use transform="matrix(0.008173828125000001,0,0,0.008173828125000001,21.897685546875003,0)" xlink:href="#aG"/><use transform="matrix(0.008173828125000001,0,0,0.008173828125000001,36.56153320312501,0)" xlink:href="#aq"/><use transform="matrix(0.008173828125000001,0,0,0.008173828125000001,46.018652343750006,0)" xlink:href="#aV"/><use transform="matrix(0.008173828125000001,0,0,0.008173828125000001,59.415556640625006,0)" xlink:href="#ay"/><use transform="matrix(0.008173828125000001,0,0,0.008173828125000001,69.45301757812501,0)" xlink:href="#as"/><use transform="matrix(0.008173828125000001,0,0,0.008173828125000001,75.47712890625002,0)" xlink:href="#ay"/><use transform="matrix(0.008173828125000001,0,0,0.008173828125000001,85.51458984375002,0)" xlink:href="#aW"/><use transform="matrix(0.008173828125000001,0,0,0.008173828125000001,94.70197265625002,0)" xlink:href="#aF"/><use transform="matrix(0.008173828125000001,0,0,0.008173828125000001,102.33632812500002,0)" xlink:href="#ak"/><use transform="matrix(0.008173828125000001,0,0,0.008173828125000001,112.58630859375002,0)" xlink:href="#ay"/><use transform="matrix(0.008173828125000001,0,0,0.008173828125000001,122.62376953125002,0)" xlink:href="#aw"/><use transform="matrix(0.008173828125000001,0,0,0.008173828125000001,132.1871484375,0)" xlink:href="#aH"/><use transform="matrix(0.008173828125000001,0,0,0.008173828125000001,142.08565429687502,0)" xlink:href="#aG"/><use transform="matrix(0.008173828125000001,0,0,0.008173828125000001,156.74950195312502,0)" xlink:href="#aq"/><use transform="matrix(0.008173828125000001,0,0,0.008173828125000001,166.50905273437502,0)" xlink:href="#at"/><use transform="matrix(0.008173828125000001,0,0,0.008173828125000001,176.39938476562503,0)" xlink:href="#ao"/><use transform="matrix(0.008173828125000001,0,0,0.008173828125000001,181.87584960937502,0)" xlink:href="#aF"/><use transform="matrix(0.008173828125000001,0,0,0.008173828125000001,190.07419921875,0)" xlink:href="#aj"/><use transform="matrix(0.008173828125000001,0,0,0.008173828125000001,194.12841796875,0)" xlink:href="#ak"/></g><g id="E"><use transform="matrix(0.008173828125000001,0,0,0.008173828125000001,0,0)" xlink:href="#av"/><use transform="matrix(0.008173828125000001,0,0,0.008173828125000001,8.835908203125001,0)" xlink:href="#ay"/><use transform="matrix(0.008173828125000001,0,0,0.008173828125000001,18.873369140625,0)" xlink:href="#aH"/><use transform="matrix(0.008173828125000001,0,0,0.008173828125000001,28.771875,0)" xlink:href="#as"/><use transform="matrix(0.008173828125000001,0,0,0.008173828125000001,34.795986328125,0)" xlink:href="#aw"/><use transform="matrix(0.008173828125000001,0,0,0.008173828125000001,44.359365234375,0)" xlink:href="#aq"/><use transform="matrix(0.008173828125000001,0,0,0.008173828125000001,54.118916015625,0)" xlink:href="#aF"/><use transform="matrix(0.008173828125000001,0,0,0.008173828125000001,62.317265625,0)" xlink:href="#ap"/><use transform="matrix(0.008173828125000001,0,0,0.008173828125000001,66.371484375,0)" xlink:href="#ay"/><use transform="matrix(0.008173828125000001,0,0,0.008173828125000001,76.4089453125,0)" xlink:href="#aw"/><use transform="matrix(0.008173828125000001,0,0,0.008173828125000001,86.13580078125,0)" xlink:href="#aC"/><use transform="matrix(0.008173828125000001,0,0,0.008173828125000001,95.535703125,0)" xlink:href="#ao"/><use transform="matrix(0.008173828125000001,0,0,0.008173828125000001,100.84869140625,0)" xlink:href="#ay"/><use transform="matrix(0.008173828125000001,0,0,0.008173828125000001,110.88615234375,0)" xlink:href="#as"/></g><g id="F"><use transform="matrix(0.008173828125000001,0,0,0.008173828125000001,0,0)" xlink:href="#av"/><use transform="matrix(0.008173828125000001,0,0,0.008173828125000001,8.835908203125001,0)" xlink:href="#ay"/><use transform="matrix(0.008173828125000001,0,0,0.008173828125000001,18.873369140625,0)" xlink:href="#aH"/><use transform="matrix(0.008173828125000001,0,0,0.008173828125000001,28.771875,0)" xlink:href="#as"/><use transform="matrix(0.008173828125000001,0,0,0.008173828125000001,34.795986328125,0)" xlink:href="#aw"/><use transform="matrix(0.008173828125000001,0,0,0.008173828125000001,44.359365234375,0)" xlink:href="#aq"/><use transform="matrix(0.008173828125000001,0,0,0.008173828125000001,54.118916015625,0)" xlink:href="#aF"/><use transform="matrix(0.008173828125000001,0,0,0.008173828125000001,62.317265625,0)" xlink:href="#ax"/><use transform="matrix(0.008173828125000001,0,0,0.008173828125000001,72.73072265625,0)" xlink:href="#aC"/><use transform="matrix(0.008173828125000001,0,0,0.008173828125000001,82.130625,0)" xlink:href="#ao"/><use transform="matrix(0.008173828125000001,0,0,0.008173828125000001,87.60708984374999,0)" xlink:href="#aQ"/></g><g id="G"><use transform="matrix(0.008173828125000001,0,0,0.008173828125000001,0,0)" xlink:href="#av"/><use transform="matrix(0.008173828125000001,0,0,0.008173828125000001,8.835908203125001,0)" xlink:href="#aW"/><use transform="matrix(0.008173828125000001,0,0,0.008173828125000001,18.023291015625002,0)" xlink:href="#aj"/><use transform="matrix(0.008173828125000001,0,0,0.008173828125000001,22.077509765625003,0)" xlink:href="#ap"/><use transform="matrix(0.008173828125000001,0,0,0.008173828125000001,26.131728515625003,0)" xlink:href="#ap"/><use transform="matrix(0.008173828125000001,0,0,0.008173828125000001,30.185947265625003,0)" xlink:href="#aF"/><use transform="matrix(0.008173828125000001,0,0,0.008173828125000001,37.820302734375005,0)" xlink:href="#aw"/><use transform="matrix(0.008173828125000001,0,0,0.008173828125000001,47.38368164062501,0)" xlink:href="#ay"/><use transform="matrix(0.008173828125000001,0,0,0.008173828125000001,57.42114257812501,0)" xlink:href="#ak"/><use transform="matrix(0.008173828125000001,0,0,0.008173828125000001,67.67112304687501,0)" xlink:href="#aq"/></g><g id="H"><use transform="matrix(0.008173828125000001,0,0,0.008173828125000001,0,0)" xlink:href="#av"/><use transform="matrix(0.008173828125000001,0,0,0.008173828125000001,8.835908203125001,0)" xlink:href="#aW"/><use transform="matrix(0.008173828125000001,0,0,0.008173828125000001,18.023291015625002,0)" xlink:href="#aj"/><use transform="matrix(0.008173828125000001,0,0,0.008173828125000001,22.077509765625003,0)" xlink:href="#ap"/><use transform="matrix(0.008173828125000001,0,0,0.008173828125000001,26.131728515625003,0)" xlink:href="#ap"/><use transform="matrix(0.008173828125000001,0,0,0.008173828125000001,30.185947265625003,0)" xlink:href="#aF"/><use transform="matrix(0.008173828125000001,0,0,0.008173828125000001,38.384296875000004,0)" xlink:href="#at"/><use transform="matrix(0.008173828125000001,0,0,0.008173828125000001,48.27462890625,0)" xlink:href="#aC"/><use transform="matrix(0.008173828125000001,0,0,0.008173828125000001,57.67453125,0)" xlink:href="#aG"/><use transform="matrix(0.008173828125000001,0,0,0.008173828125000001,72.33837890625,0)" xlink:href="#aq"/></g><g id="I"><use transform="matrix(0.008173828125000001,0,0,0.008173828125000001,0,0)" xlink:href="#ap"/><use transform="matrix(0.008173828125000001,0,0,0.008173828125000001,4.05421875,0)" xlink:href="#aq"/><use transform="matrix(0.008173828125000001,0,0,0.008173828125000001,13.48681640625,0)" xlink:href="#aD"/><use transform="matrix(0.008173828125000001,0,0,0.008173828125000001,22.567939453125,0)" xlink:href="#aq"/><use transform="matrix(0.008173828125000001,0,0,0.008173828125000001,32.327490234375,0)" xlink:href="#ap"/></g><g id="J"><use transform="matrix(0.008173828125000001,0,0,0.008173828125000001,0,0)" xlink:href="#as"/><use transform="matrix(0.008173828125000001,0,0,0.008173828125000001,6.302021484375,0)" xlink:href="#aC"/><use transform="matrix(0.008173828125000001,0,0,0.008173828125000001,15.701923828125002,0)" xlink:href="#aV"/><use transform="matrix(0.008173828125000001,0,0,0.008173828125000001,29.401259765625003,0)" xlink:href="#aF"/><use transform="matrix(0.008173828125000001,0,0,0.008173828125000001,37.035615234375,0)" xlink:href="#ao"/><use transform="matrix(0.008173828125000001,0,0,0.008173828125000001,42.348603515625,0)" xlink:href="#aq"/><use transform="matrix(0.008173828125000001,0,0,0.008173828125000001,51.732158203125,0)" xlink:href="#aA"/><use transform="matrix(0.008173828125000001,0,0,0.008173828125000001,61.19745117187501,0)" xlink:href="#ao"/></g><g id="K"><use transform="matrix(0.008173828125000001,0,0,0.008173828125000001,0,0)" xlink:href="#av"/><use transform="matrix(0.008173828125000001,0,0,0.008173828125000001,8.835908203125001,0)" xlink:href="#aH"/><use transform="matrix(0.008173828125000001,0,0,0.008173828125000001,18.7344140625,0)" xlink:href="#aG"/><use transform="matrix(0.008173828125000001,0,0,0.008173828125000001,33.39826171875001,0)" xlink:href="#aG"/><use transform="matrix(0.008173828125000001,0,0,0.008173828125000001,48.062109375000006,0)" xlink:href="#aC"/><use transform="matrix(0.008173828125000001,0,0,0.008173828125000001,57.462011718750006,0)" xlink:href="#as"/><use transform="matrix(0.008173828125000001,0,0,0.008173828125000001,64.025595703125,0)" xlink:href="#aE"/><use transform="matrix(0.008173828125000001,0,0,0.008173828125000001,72.10951171875,0)" xlink:href="#aF"/><use transform="matrix(0.008173828125000001,0,0,0.008173828125000001,79.7438671875,0)" xlink:href="#ao"/><use transform="matrix(0.008173828125000001,0,0,0.008173828125000001,85.05685546875,0)" xlink:href="#aq"/><use transform="matrix(0.008173828125000001,0,0,0.008173828125000001,94.44041015625,0)" xlink:href="#aA"/><use transform="matrix(0.008173828125000001,0,0,0.008173828125000001,103.905703125,0)" xlink:href="#ao"/></g><g id="L"><use transform="matrix(0.008173828125000001,0,0,0.008173828125000001,0,0)" xlink:href="#aD"/><use transform="matrix(0.008173828125000001,0,0,0.008173828125000001,9.081123046875001,0)" xlink:href="#aq"/><use transform="matrix(0.008173828125000001,0,0,0.008173828125000001,18.840673828125002,0)" xlink:href="#aw"/><use transform="matrix(0.008173828125000001,0,0,0.008173828125000001,28.404052734375004,0)" xlink:href="#ao"/><use transform="matrix(0.008173828125000001,0,0,0.008173828125000001,33.717041015625,0)" xlink:href="#ay"/><use transform="matrix(0.008173828125000001,0,0,0.008173828125000001,43.754501953125,0)" xlink:href="#as"/><use transform="matrix(0.008173828125000001,0,0,0.008173828125000001,50.056523437500005,0)" xlink:href="#aF"/><use transform="matrix(0.008173828125000001,0,0,0.008173828125000001,58.254873046875005,0)" xlink:href="#aX"/><use transform="matrix(0.008173828125000001,0,0,0.008173828125000001,68.66833007812501,0)" xlink:href="#aC"/><use transform="matrix(0.008173828125000001,0,0,0.008173828125000001,78.06823242187501,0)" xlink:href="#aw"/><use transform="matrix(0.008173828125000001,0,0,0.008173828125000001,87.63161132812502,0)" xlink:href="#aW"/><use transform="matrix(0.008173828125000001,0,0,0.008173828125000001,96.442998046875,0)" xlink:href="#aq"/><use transform="matrix(0.008173828125000001,0,0,0.008173828125000001,106.20254882812502,0)" xlink:href="#at"/><use transform="matrix(0.008173828125000001,0,0,0.008173828125000001,116.09288085937501,0)" xlink:href="#ak"/></g><g id="M"><use transform="matrix(0.008173828125000001,0,0,0.008173828125000001,0,0)" xlink:href="#aD"/><use transform="matrix(0.008173828125000001,0,0,0.008173828125000001,9.081123046875001,0)" xlink:href="#aq"/><use transform="matrix(0.008173828125000001,0,0,0.008173828125000001,18.840673828125002,0)" xlink:href="#aw"/><use transform="matrix(0.008173828125000001,0,0,0.008173828125000001,28.404052734375004,0)" xlink:href="#ao"/><use transform="matrix(0.008173828125000001,0,0,0.008173828125000001,33.717041015625,0)" xlink:href="#ay"/><use transform="matrix(0.008173828125000001,0,0,0.008173828125000001,43.754501953125,0)" xlink:href="#as"/><use transform="matrix(0.008173828125000001,0,0,0.008173828125000001,50.056523437500005,0)" xlink:href="#aF"/><use transform="matrix(0.008173828125000001,0,0,0.008173828125000001,57.690878906250006,0)" xlink:href="#aw"/><use transform="matrix(0.008173828125000001,0,0,0.008173828125000001,67.25425781250001,0)" xlink:href="#ay"/><use transform="matrix(0.008173828125000001,0,0,0.008173828125000001,77.29171875000002,0)" xlink:href="#ap"/><use transform="matrix(0.008173828125000001,0,0,0.008173828125000001,81.34593750000002,0)" xlink:href="#ap"/><use transform="matrix(0.008173828125000001,0,0,0.008173828125000001,85.40015625000002,0)" xlink:href="#aq"/><use transform="matrix(0.008173828125000001,0,0,0.008173828125000001,95.15970703125002,0)" xlink:href="#aw"/><use transform="matrix(0.008173828125000001,0,0,0.008173828125000001,104.72308593750003,0)" xlink:href="#ao"/><use transform="matrix(0.008173828125000001,0,0,0.008173828125000001,110.19955078125003,0)" xlink:href="#aj"/><use transform="matrix(0.008173828125000001,0,0,0.008173828125000001,114.25376953125003,0)" xlink:href="#ay"/><use transform="matrix(0.008173828125000001,0,0,0.008173828125000001,124.29123046875003,0)" xlink:href="#at"/></g><g id="N"><use transform="matrix(0.008173828125000001,0,0,0.008173828125000001,0,0)" xlink:href="#aD"/><use transform="matrix(0.008173828125000001,0,0,0.008173828125000001,9.081123046875001,0)" xlink:href="#aq"/><use transform="matrix(0.008173828125000001,0,0,0.008173828125000001,18.840673828125002,0)" xlink:href="#aw"/><use transform="matrix(0.008173828125000001,0,0,0.008173828125000001,28.404052734375004,0)" xlink:href="#ao"/><use transform="matrix(0.008173828125000001,0,0,0.008173828125000001,33.717041015625,0)" xlink:href="#ay"/><use transform="matrix(0.008173828125000001,0,0,0.008173828125000001,43.754501953125,0)" xlink:href="#as"/><use transform="matrix(0.008173828125000001,0,0,0.008173828125000001,50.056523437500005,0)" xlink:href="#aF"/><use transform="matrix(0.008173828125000001,0,0,0.008173828125000001,58.254873046875005,0)" xlink:href="#aj"/><use transform="matrix(0.008173828125000001,0,0,0.008173828125000001,62.30909179687501,0)" xlink:href="#ak"/></g><g id="O"><use transform="matrix(0.008173828125000001,0,0,0.008173828125000001,0,0)" xlink:href="#aq"/><use transform="matrix(0.008173828125000001,0,0,0.008173828125000001,9.75955078125,0)" xlink:href="#aG"/><use transform="matrix(0.008173828125000001,0,0,0.008173828125000001,24.42339843750001,0)" xlink:href="#aX"/><use transform="matrix(0.008173828125000001,0,0,0.008173828125000001,34.673378906250015,0)" xlink:href="#aq"/><use transform="matrix(0.008173828125000001,0,0,0.008173828125000001,44.43292968750001,0)" xlink:href="#ak"/><use transform="matrix(0.008173828125000001,0,0,0.008173828125000001,54.68291015625001,0)" xlink:href="#ak"/><use transform="matrix(0.008173828125000001,0,0,0.008173828125000001,64.93289062500001,0)" xlink:href="#aj"/><use transform="matrix(0.008173828125000001,0,0,0.008173828125000001,68.98710937500002,0)" xlink:href="#at"/><use transform="matrix(0.008173828125000001,0,0,0.008173828125000001,78.87744140625001,0)" xlink:href="#au"/><use transform="matrix(0.008173828125000001,0,0,0.008173828125000001,89.14376953125002,0)" xlink:href="#aF"/><use transform="matrix(0.008173828125000001,0,0,0.008173828125000001,97.34211914062502,0)" xlink:href="#aG"/><use transform="matrix(0.008173828125000001,0,0,0.008173828125000001,112.00596679687501,0)" xlink:href="#ay"/><use transform="matrix(0.008173828125000001,0,0,0.008173828125000001,122.04342773437502,0)" xlink:href="#ak"/><use transform="matrix(0.008173828125000001,0,0,0.008173828125000001,132.293408203125,0)" xlink:href="#aq"/><use transform="matrix(0.008173828125000001,0,0,0.008173828125000001,142.052958984375,0)" xlink:href="#ap"/></g><g id="P"><use transform="matrix(0.008173828125000001,0,0,0.008173828125000001,0,0)" xlink:href="#aq"/><use transform="matrix(0.008173828125000001,0,0,0.008173828125000001,9.75955078125,0)" xlink:href="#aG"/><use transform="matrix(0.008173828125000001,0,0,0.008173828125000001,24.42339843750001,0)" xlink:href="#aX"/><use transform="matrix(0.008173828125000001,0,0,0.008173828125000001,34.673378906250015,0)" xlink:href="#aq"/><use transform="matrix(0.008173828125000001,0,0,0.008173828125000001,44.43292968750001,0)" xlink:href="#ak"/><use transform="matrix(0.008173828125000001,0,0,0.008173828125000001,54.68291015625001,0)" xlink:href="#ak"/><use transform="matrix(0.008173828125000001,0,0,0.008173828125000001,64.93289062500001,0)" xlink:href="#aj"/><use transform="matrix(0.008173828125000001,0,0,0.008173828125000001,68.98710937500002,0)" xlink:href="#at"/><use transform="matrix(0.008173828125000001,0,0,0.008173828125000001,78.87744140625001,0)" xlink:href="#au"/><use transform="matrix(0.008173828125000001,0,0,0.008173828125000001,89.14376953125002,0)" xlink:href="#aF"/><use transform="matrix(0.008173828125000001,0,0,0.008173828125000001,96.77812500000002,0)" xlink:href="#ak"/><use transform="matrix(0.008173828125000001,0,0,0.008173828125000001,107.02810546875001,0)" xlink:href="#aj"/><use transform="matrix(0.008173828125000001,0,0,0.008173828125000001,111.08232421875002,0)" xlink:href="#aG"/></g><g id="Q"><use transform="matrix(0.008173828125000001,0,0,0.008173828125000001,0,0)" xlink:href="#am"/><use transform="matrix(0.008173828125000001,0,0,0.008173828125000001,4.495605468750001,0)" xlink:href="#at"/><use transform="matrix(0.008173828125000001,0,0,0.008173828125000001,14.3859375,0)" xlink:href="#ao"/><use transform="matrix(0.008173828125000001,0,0,0.008173828125000001,19.69892578125,0)" xlink:href="#aq"/><use transform="matrix(0.008173828125000001,0,0,0.008173828125000001,29.458476562500003,0)" xlink:href="#au"/><use transform="matrix(0.008173828125000001,0,0,0.008173828125000001,39.724804687500004,0)" xlink:href="#aq"/><use transform="matrix(0.008173828125000001,0,0,0.008173828125000001,49.48435546875,0)" xlink:href="#as"/></g><g id="R"><use transform="matrix(0.008173828125000001,0,0,0.008173828125000001,0,0)" xlink:href="#aq"/><use transform="matrix(0.008173828125000001,0,0,0.008173828125000001,9.383554687500002,0)" xlink:href="#aA"/><use transform="matrix(0.008173828125000001,0,0,0.008173828125000001,18.84884765625,0)" xlink:href="#ao"/><use transform="matrix(0.008173828125000001,0,0,0.008173828125000001,24.325312500000003,0)" xlink:href="#as"/><use transform="matrix(0.008173828125000001,0,0,0.008173828125000001,30.627333984375003,0)" xlink:href="#aC"/><use transform="matrix(0.008173828125000001,0,0,0.008173828125000001,40.02723632812501,0)" xlink:href="#aF"/><use transform="matrix(0.008173828125000001,0,0,0.008173828125000001,48.22558593750001,0)" xlink:href="#aG"/><use transform="matrix(0.008173828125000001,0,0,0.008173828125000001,62.88943359375001,0)" xlink:href="#aq"/><use transform="matrix(0.008173828125000001,0,0,0.008173828125000001,72.64898437500001,0)" xlink:href="#ao"/><use transform="matrix(0.008173828125000001,0,0,0.008173828125000001,78.2071875,0)" xlink:href="#aC"/><use transform="matrix(0.008173828125000001,0,0,0.008173828125000001,87.60708984375,0)" xlink:href="#ak"/><use transform="matrix(0.008173828125000001,0,0,0.008173828125000001,97.8570703125,0)" xlink:href="#aC"/><use transform="matrix(0.008173828125000001,0,0,0.008173828125000001,107.25697265625,0)" xlink:href="#ao"/><use transform="matrix(0.008173828125000001,0,0,0.008173828125000001,112.81517578124998,0)" xlink:href="#aC"/></g><path d="M545 20c-263 0-445-160-445-446v-80h190v80c0 182 102 279 255 279 152 0 254-97 254-279v-1064h190v1064c0 286-181 446-444 446" id="bg"/><path d="M784 20c-382 0-662-292-662-764 0-473 280-766 662-766s660 293 660 766c0 472-278 764-660 764zm0-176c266 0 475-207 475-588 0-383-209-590-475-590-268 0-477 208-477 590 0 380 209 588 477 588" id="bh"/><path d="M180 0v-1490h224l606 953c40 63 108 177 176 312-27-437-7-821-13-1265h190V0h-226C860-448 622-778 356-1262c27 476 11 792 15 1262H180" id="bi"/><g id="S"><use transform="matrix(0.008173828125000001,0,0,0.008173828125000001,0,0)" xlink:href="#bg"/><use transform="matrix(0.008173828125000001,0,0,0.008173828125000001,9.555205078125,0)" xlink:href="#ar"/><use transform="matrix(0.008173828125000001,0,0,0.008173828125000001,20.295615234375003,0)" xlink:href="#bh"/><use transform="matrix(0.008173828125000001,0,0,0.008173828125000001,33.095830078125005,0)" xlink:href="#bi"/></g><path d="M135 0v-1490h997v253H440v360h640v249H440v375h694V0H135" id="bj"/><g id="T"><use transform="matrix(0.008173828125000001,0,0,0.008173828125000001,0,0)" xlink:href="#ad"/><use transform="matrix(0.008173828125000001,0,0,0.008173828125000001,12.113613281250002,0)" xlink:href="#ae"/><use transform="matrix(0.008173828125000001,0,0,0.008173828125000001,21.963076171875002,0)" xlink:href="#af"/><use transform="matrix(0.008173828125000001,0,0,0.008173828125000001,28.093447265625002,0)" xlink:href="#ag"/><use transform="matrix(0.008173828125000001,0,0,0.008173828125000001,32.629921875,0)" xlink:href="#ah"/><use transform="matrix(0.008173828125000001,0,0,0.008173828125000001,42.66738281250001,0)" xlink:href="#ag"/><use transform="matrix(0.008173828125000001,0,0,0.008173828125000001,47.203857421875,0)" xlink:href="#af"/><use transform="matrix(0.008173828125000001,0,0,0.008173828125000001,53.70205078125,0)" xlink:href="#ai"/><use transform="matrix(0.008173828125000001,0,0,0.008173828125000001,63.82125,0)" xlink:href="#bj"/><use transform="matrix(0.008173828125000001,0,0,0.008173828125000001,73.9894921875,0)" xlink:href="#ah"/><use transform="matrix(0.008173828125000001,0,0,0.008173828125000001,84.026953125,0)" xlink:href="#ag"/><use transform="matrix(0.008173828125000001,0,0,0.008173828125000001,88.56342773437501,0)" xlink:href="#bc"/><use transform="matrix(0.008173828125000001,0,0,0.008173828125000001,99.11583984375001,0)" xlink:href="#aM"/><use transform="matrix(0.008173828125000001,0,0,0.008173828125000001,109.08791015625002,0)" xlink:href="#aT"/><use transform="matrix(0.008173828125000001,0,0,0.008173828125000001,119.50954101562502,0)" xlink:href="#ae"/><use transform="matrix(0.008173828125000001,0,0,0.008173828125000001,129.35900390625002,0)" xlink:href="#aM"/></g><g id="U"><use transform="matrix(0.008173828125000001,0,0,0.008173828125000001,0,0)" xlink:href="#aC"/><use transform="matrix(0.008173828125000001,0,0,0.008173828125000001,9.399902343750002,0)" xlink:href="#aw"/><use transform="matrix(0.008173828125000001,0,0,0.008173828125000001,18.96328125,0)" xlink:href="#ao"/><use transform="matrix(0.008173828125000001,0,0,0.008173828125000001,24.439746093750003,0)" xlink:href="#aj"/><use transform="matrix(0.008173828125000001,0,0,0.008173828125000001,28.493964843750003,0)" xlink:href="#aD"/><use transform="matrix(0.008173828125000001,0,0,0.008173828125000001,37.902041015625,0)" xlink:href="#aj"/><use transform="matrix(0.008173828125000001,0,0,0.008173828125000001,41.956259765625006,0)" xlink:href="#ao"/><use transform="matrix(0.008173828125000001,0,0,0.008173828125000001,47.75967773437501,0)" xlink:href="#aE"/><use transform="matrix(0.008173828125000001,0,0,0.008173828125000001,55.84359375000001,0)" xlink:href="#aF"/><use transform="matrix(0.008173828125000001,0,0,0.008173828125000001,64.04194335937501,0)" xlink:href="#aj"/><use transform="matrix(0.008173828125000001,0,0,0.008173828125000001,68.096162109375,0)" xlink:href="#ak"/></g><g id="V"><use transform="matrix(0.008173828125000001,0,0,0.008173828125000001,0,0)" xlink:href="#aw"/><use transform="matrix(0.008173828125000001,0,0,0.008173828125000001,9.563378906250001,0)" xlink:href="#ay"/><use transform="matrix(0.008173828125000001,0,0,0.008173828125000001,19.600839843750002,0)" xlink:href="#at"/><use transform="matrix(0.008173828125000001,0,0,0.008173828125000001,29.491171875000003,0)" xlink:href="#aU"/><use transform="matrix(0.008173828125000001,0,0,0.008173828125000001,35.686933593750005,0)" xlink:href="#aj"/><use transform="matrix(0.008173828125000001,0,0,0.008173828125000001,39.74115234375,0)" xlink:href="#ak"/><use transform="matrix(0.008173828125000001,0,0,0.008173828125000001,49.991132812500005,0)" xlink:href="#aq"/><use transform="matrix(0.008173828125000001,0,0,0.008173828125000001,59.750683593750004,0)" xlink:href="#at"/><use transform="matrix(0.008173828125000001,0,0,0.008173828125000001,69.64101562500001,0)" xlink:href="#aw"/><use transform="matrix(0.008173828125000001,0,0,0.008173828125000001,79.20439453125003,0)" xlink:href="#aq"/></g><path d="M180 0v-1490h901v168H370v510h643v168H370V0H180" id="bk"/><g id="W"><use transform="matrix(0.008173828125000001,0,0,0.008173828125000001,0,0)" xlink:href="#bk"/><use transform="matrix(0.008173828125000001,0,0,0.008173828125000001,9.882158203125002,0)" xlink:href="#ap"/><use transform="matrix(0.008173828125000001,0,0,0.008173828125000001,13.936376953125002,0)" xlink:href="#ay"/><use transform="matrix(0.008173828125000001,0,0,0.008173828125000001,24.137314453125,0)" xlink:href="#aC"/><use transform="matrix(0.008173828125000001,0,0,0.008173828125000001,33.537216796875,0)" xlink:href="#ao"/></g><g id="X"><use transform="matrix(0.008173828125000001,0,0,0.008173828125000001,0,0)" xlink:href="#aB"/><use transform="matrix(0.008173828125000001,0,0,0.008173828125000001,4.05421875,0)" xlink:href="#aH"/><use transform="matrix(0.008173828125000001,0,0,0.008173828125000001,13.952724609375002,0)" xlink:href="#av"/><use transform="matrix(0.008173828125000001,0,0,0.008173828125000001,22.788632812500005,0)" xlink:href="#ao"/><use transform="matrix(0.008173828125000001,0,0,0.008173828125000001,28.265097656250006,0)" xlink:href="#aj"/><use transform="matrix(0.008173828125000001,0,0,0.008173828125000001,32.31931640625001,0)" xlink:href="#aU"/><use transform="matrix(0.008173828125000001,0,0,0.008173828125000001,38.51507812500001,0)" xlink:href="#aj"/><use transform="matrix(0.008173828125000001,0,0,0.008173828125000001,42.569296875000006,0)" xlink:href="#aw"/><use transform="matrix(0.008173828125000001,0,0,0.008173828125000001,52.29615234375001,0)" xlink:href="#aC"/><use transform="matrix(0.008173828125000001,0,0,0.008173828125000001,61.69605468750001,0)" xlink:href="#ao"/><use transform="matrix(0.008173828125000001,0,0,0.008173828125000001,67.17251953125,0)" xlink:href="#aj"/><use transform="matrix(0.008173828125000001,0,0,0.008173828125000001,71.22673828125001,0)" xlink:href="#ay"/><use transform="matrix(0.008173828125000001,0,0,0.008173828125000001,81.26419921875001,0)" xlink:href="#at"/></g><g id="Y"><use transform="matrix(0.008173828125000001,0,0,0.008173828125000001,0,0)" xlink:href="#av"/><use transform="matrix(0.008173828125000001,0,0,0.008173828125000001,8.835908203125001,0)" xlink:href="#aH"/><use transform="matrix(0.008173828125000001,0,0,0.008173828125000001,18.7344140625,0)" xlink:href="#ax"/><use transform="matrix(0.008173828125000001,0,0,0.008173828125000001,28.984394531250004,0)" xlink:href="#ax"/><use transform="matrix(0.008173828125000001,0,0,0.008173828125000001,39.23437500000001,0)" xlink:href="#ay"/><use transform="matrix(0.008173828125000001,0,0,0.008173828125000001,49.27183593750001,0)" xlink:href="#as"/><use transform="matrix(0.008173828125000001,0,0,0.008173828125000001,55.835419921875,0)" xlink:href="#ao"/><use transform="matrix(0.008173828125000001,0,0,0.008173828125000001,61.311884765625,0)" xlink:href="#aj"/><use transform="matrix(0.008173828125000001,0,0,0.008173828125000001,65.366103515625,0)" xlink:href="#at"/><use transform="matrix(0.008173828125000001,0,0,0.008173828125000001,75.256435546875,0)" xlink:href="#au"/><use transform="matrix(0.008173828125000001,0,0,0.008173828125000001,85.522763671875,0)" xlink:href="#aF"/><use transform="matrix(0.008173828125000001,0,0,0.008173828125000001,93.157119140625,0)" xlink:href="#aw"/><use transform="matrix(0.008173828125000001,0,0,0.008173828125000001,102.72049804687501,0)" xlink:href="#aQ"/><use transform="matrix(0.008173828125000001,0,0,0.008173828125000001,112.61900390625001,0)" xlink:href="#aH"/><use transform="matrix(0.008173828125000001,0,0,0.008173828125000001,122.51750976562502,0)" xlink:href="#at"/><use transform="matrix(0.008173828125000001,0,0,0.008173828125000001,132.40784179687503,0)" xlink:href="#aW"/><use transform="matrix(0.008173828125000001,0,0,0.008173828125000001,141.59522460937504,0)" xlink:href="#aF"/><use transform="matrix(0.008173828125000001,0,0,0.008173828125000001,149.79357421875002,0)" xlink:href="#aj"/><use transform="matrix(0.008173828125000001,0,0,0.008173828125000001,153.84779296875,0)" xlink:href="#ak"/><use transform="matrix(0.008173828125000001,0,0,0.008173828125000001,164.09777343750002,0)" xlink:href="#av"/></g><path d="M52 0l541-1490h220L1361 0h-200l-149-416H398L254 0H52zm404-582h497c-103-290-145-390-251-756-108 377-145 460-246 756" id="bl"/><path d="M180 0v-1490h510c348 0 508 194 508 460 0 198-88 351-276 417L1256 0h-220L726-579c-117 2-238 0-356 1V0H180zm190-747h312c235 0 327-108 327-283 0-177-92-293-329-293H370v576" id="bm"/><path d="M600 0v-610L52-1490h220l295 481c50 82 90 150 130 243 40-96 80-164 128-243l294-481h219L790-610V0H600" id="bn"/><path d="M218-607c0-325 108-727 258-974h175c-155 315-250 682-250 974 0 265 78 531 250 886H476C306-10 218-315 218-607" id="bo"/><path d="M96 279C273-86 346-350 346-607c0-292-95-659-250-974h175c150 246 258 650 258 974 0 297-91 602-258 886H96" id="bp"/><g id="Z"><use transform="matrix(0.008173828125000001,0,0,0.008173828125000001,0,0)" xlink:href="#bl"/><use transform="matrix(0.008173828125000001,0,0,0.008173828125000001,11.549619140625001,0)" xlink:href="#bm"/><use transform="matrix(0.008173828125000001,0,0,0.008173828125000001,22.322724609375,0)" xlink:href="#bm"/><use transform="matrix(0.008173828125000001,0,0,0.008173828125000001,33.095830078125005,0)" xlink:href="#bl"/><use transform="matrix(0.008173828125000001,0,0,0.008173828125000001,43.41120117187501,0)" xlink:href="#bn"/><use transform="matrix(0.008173828125000001,0,0,0.008173828125000001,54.77282226562501,0)" xlink:href="#bo"/><use transform="matrix(0.008173828125000001,0,0,0.008173828125000001,60.87867187500001,0)" xlink:href="#al"/><use transform="matrix(0.008173828125000001,0,0,0.008173828125000001,73.33558593750001,0)" xlink:href="#al"/><use transform="matrix(0.008173828125000001,0,0,0.008173828125000001,85.79250000000002,0)" xlink:href="#am"/><use transform="matrix(0.008173828125000001,0,0,0.008173828125000001,90.28810546875003,0)" xlink:href="#an"/><use transform="matrix(0.008173828125000001,0,0,0.008173828125000001,102.36902343750002,0)" xlink:href="#bp"/></g><g id="aa"><use transform="matrix(0.008173828125000001,0,0,0.008173828125000001,0,0)" xlink:href="#ap"/><use transform="matrix(0.008173828125000001,0,0,0.008173828125000001,4.05421875,0)" xlink:href="#ap"/><use transform="matrix(0.008173828125000001,0,0,0.008173828125000001,8.1084375,0)" xlink:href="#aG"/><use transform="matrix(0.008173828125000001,0,0,0.008173828125000001,22.772285156250003,0)" xlink:href="#aF"/><use transform="matrix(0.008173828125000001,0,0,0.008173828125000001,30.970634765625004,0)" xlink:href="#aG"/><use transform="matrix(0.008173828125000001,0,0,0.008173828125000001,45.634482421875006,0)" xlink:href="#ay"/><use transform="matrix(0.008173828125000001,0,0,0.008173828125000001,55.67194335937501,0)" xlink:href="#ak"/><use transform="matrix(0.008173828125000001,0,0,0.008173828125000001,65.921923828125,0)" xlink:href="#aq"/><use transform="matrix(0.008173828125000001,0,0,0.008173828125000001,75.68147460937502,0)" xlink:href="#ap"/></g><g id="ab"><use transform="matrix(0.008173828125000001,0,0,0.008173828125000001,0,0)" xlink:href="#ax"/><use transform="matrix(0.008173828125000001,0,0,0.008173828125000001,10.249980468750001,0)" xlink:href="#as"/><use transform="matrix(0.008173828125000001,0,0,0.008173828125000001,16.274091796875002,0)" xlink:href="#ay"/><use transform="matrix(0.008173828125000001,0,0,0.008173828125000001,26.311552734375002,0)" xlink:href="#aG"/><use transform="matrix(0.008173828125000001,0,0,0.008173828125000001,40.975400390625005,0)" xlink:href="#ax"/><use transform="matrix(0.008173828125000001,0,0,0.008173828125000001,51.22538085937501,0)" xlink:href="#ao"/><use transform="matrix(0.008173828125000001,0,0,0.008173828125000001,56.70184570312501,0)" xlink:href="#aF"/><use transform="matrix(0.008173828125000001,0,0,0.008173828125000001,63.01204101562501,0)" xlink:href="#aD"/><use transform="matrix(0.008173828125000001,0,0,0.008173828125000001,72.09316406250001,0)" xlink:href="#aq"/><use transform="matrix(0.008173828125000001,0,0,0.008173828125000001,81.85271484375001,0)" xlink:href="#as"/><use transform="matrix(0.008173828125000001,0,0,0.008173828125000001,88.15473632812501,0)" xlink:href="#av"/><use transform="matrix(0.008173828125000001,0,0,0.008173828125000001,96.99064453125001,0)" xlink:href="#aj"/><use transform="matrix(0.008173828125000001,0,0,0.008173828125000001,101.04486328125002,0)" xlink:href="#ay"/><use transform="matrix(0.008173828125000001,0,0,0.008173828125000001,111.08232421875002,0)" xlink:href="#at"/></g><g id="ac"><use transform="matrix(0.008173828125000001,0,0,0.008173828125000001,0,0)" xlink:href="#aC"/><use transform="matrix(0.008173828125000001,0,0,0.008173828125000001,9.399902343750002,0)" xlink:href="#at"/><use transform="matrix(0.008173828125000001,0,0,0.008173828125000001,19.290234375000004,0)" xlink:href="#aC"/><use transform="matrix(0.008173828125000001,0,0,0.008173828125000001,28.690136718750004,0)" xlink:href="#ap"/><use transform="matrix(0.008173828125000001,0,0,0.008173828125000001,32.826093750000005,0)" xlink:href="#aE"/><use transform="matrix(0.008173828125000001,0,0,0.008173828125000001,42.23416992187501,0)" xlink:href="#av"/><use transform="matrix(0.008173828125000001,0,0,0.008173828125000001,51.07007812500001,0)" xlink:href="#aj"/><use transform="matrix(0.008173828125000001,0,0,0.008173828125000001,55.12429687500001,0)" xlink:href="#av"/><use transform="matrix(0.008173828125000001,0,0,0.008173828125000001,63.960205078125014,0)" xlink:href="#aF"/><use transform="matrix(0.008173828125000001,0,0,0.008173828125000001,72.15855468750001,0)" xlink:href="#as"/><use transform="matrix(0.008173828125000001,0,0,0.008173828125000001,78.46057617187502,0)" xlink:href="#aH"/><use transform="matrix(0.008173828125000001,0,0,0.008173828125000001,88.35908203125003,0)" xlink:href="#at"/><use transform="matrix(0.008173828125000001,0,0,0.008173828125000001,98.24941406250002,0)" xlink:href="#aF"/><use transform="matrix(0.008173828125000001,0,0,0.008173828125000001,106.44776367187502,0)" xlink:href="#aj"/><use transform="matrix(0.008173828125000001,0,0,0.008173828125000001,110.50198242187503,0)" xlink:href="#ak"/></g></defs></g></svg>